<mxfile host="app.diagrams.net" modified="2024-01-17T13:31:17.186Z" agent="Mozilla/5.0 (Windows NT 10.0; Win64; x64) AppleWebKit/537.36 (KHTML, like Gecko) Chrome/120.0.0.0 Safari/537.36" etag="VNLG815ajimvVStzDY0B" version="22.1.20" type="device" pages="6">
  <diagram name="Page-1" id="qgamcH62YcIcaC-iG1-1">
    <mxGraphModel dx="1050" dy="522" grid="1" gridSize="10" guides="1" tooltips="1" connect="1" arrows="1" fold="1" page="1" pageScale="1" pageWidth="850" pageHeight="1100" math="0" shadow="0">
      <root>
        <mxCell id="0" />
        <mxCell id="1" parent="0" />
        <mxCell id="ijYZeFkr2vpScU7XpiKA-1" value="&lt;font face=&quot;Times New Roman&quot; style=&quot;font-size: 22px;&quot;&gt;&lt;b style=&quot;&quot;&gt;Student&lt;/b&gt;&lt;/font&gt;" style="whiteSpace=wrap;html=1;align=center;" parent="1" vertex="1">
          <mxGeometry x="80" y="283" width="80" height="40" as="geometry" />
        </mxCell>
        <mxCell id="ijYZeFkr2vpScU7XpiKA-4" value="&lt;font face=&quot;Times New Roman&quot; style=&quot;font-size: 22px;&quot;&gt;&lt;b&gt;Professor&lt;/b&gt;&lt;/font&gt;" style="whiteSpace=wrap;html=1;align=center;" parent="1" vertex="1">
          <mxGeometry x="720" y="280" width="90" height="40" as="geometry" />
        </mxCell>
        <mxCell id="ijYZeFkr2vpScU7XpiKA-142" value="" style="rounded=0;orthogonalLoop=1;jettySize=auto;html=1;entryX=0.25;entryY=0;entryDx=0;entryDy=0;endArrow=none;endFill=0;" parent="1" source="ijYZeFkr2vpScU7XpiKA-45" target="ijYZeFkr2vpScU7XpiKA-1" edge="1">
          <mxGeometry relative="1" as="geometry">
            <mxPoint x="50" y="237.5" as="targetPoint" />
          </mxGeometry>
        </mxCell>
        <mxCell id="ijYZeFkr2vpScU7XpiKA-45" value="&lt;font face=&quot;Times New Roman&quot; style=&quot;font-size: 18px;&quot;&gt;Std_ID&lt;/font&gt;" style="ellipse;whiteSpace=wrap;html=1;align=center;fontStyle=4;" parent="1" vertex="1">
          <mxGeometry x="20" y="112.5" width="60" height="30" as="geometry" />
        </mxCell>
        <mxCell id="ijYZeFkr2vpScU7XpiKA-137" value="" style="rounded=0;orthogonalLoop=1;jettySize=auto;html=1;entryX=0;entryY=0;entryDx=0;entryDy=0;endArrow=none;endFill=0;" parent="1" source="ijYZeFkr2vpScU7XpiKA-57" target="ijYZeFkr2vpScU7XpiKA-5" edge="1">
          <mxGeometry relative="1" as="geometry">
            <mxPoint x="205" y="250" as="targetPoint" />
          </mxGeometry>
        </mxCell>
        <mxCell id="ijYZeFkr2vpScU7XpiKA-57" value="&lt;font face=&quot;Times New Roman&quot; style=&quot;font-size: 18px;&quot;&gt;enroll_date&lt;/font&gt;" style="ellipse;whiteSpace=wrap;html=1;align=center;" parent="1" vertex="1">
          <mxGeometry x="180" y="110" width="90" height="35" as="geometry" />
        </mxCell>
        <mxCell id="ijYZeFkr2vpScU7XpiKA-135" value="" style="rounded=0;orthogonalLoop=1;jettySize=auto;html=1;entryX=0.672;entryY=0.192;entryDx=0;entryDy=0;entryPerimeter=0;endArrow=none;endFill=0;" parent="1" target="ijYZeFkr2vpScU7XpiKA-5" edge="1">
          <mxGeometry relative="1" as="geometry">
            <mxPoint x="311.81971908829104" y="127.33034830006322" as="sourcePoint" />
            <mxPoint x="299.99999999999994" y="278.00000000000006" as="targetPoint" />
            <Array as="points">
              <mxPoint x="314.44" y="130.8" />
            </Array>
          </mxGeometry>
        </mxCell>
        <mxCell id="ijYZeFkr2vpScU7XpiKA-70" value="&lt;font face=&quot;Times New Roman&quot; style=&quot;font-size: 18px;&quot;&gt;Ref by&lt;/font&gt;" style="ellipse;whiteSpace=wrap;html=1;align=center;" parent="1" vertex="1">
          <mxGeometry x="280" y="117.5" width="70" height="30" as="geometry" />
        </mxCell>
        <mxCell id="ijYZeFkr2vpScU7XpiKA-140" value="" style="rounded=0;orthogonalLoop=1;jettySize=auto;html=1;exitX=0.5;exitY=1;exitDx=0;exitDy=0;endArrow=none;endFill=0;" parent="1" source="ijYZeFkr2vpScU7XpiKA-50" edge="1">
          <mxGeometry relative="1" as="geometry">
            <mxPoint x="129.5" y="145.5" as="sourcePoint" />
            <mxPoint x="129.5" y="283" as="targetPoint" />
          </mxGeometry>
        </mxCell>
        <mxCell id="ijYZeFkr2vpScU7XpiKA-50" value="&lt;font face=&quot;Times New Roman&quot; style=&quot;font-size: 18px;&quot;&gt;Std_Name&lt;/font&gt;" style="ellipse;whiteSpace=wrap;html=1;align=center;" parent="1" vertex="1">
          <mxGeometry x="90" y="112.5" width="80" height="30" as="geometry" />
        </mxCell>
        <mxCell id="ijYZeFkr2vpScU7XpiKA-131" value="" style="rounded=0;orthogonalLoop=1;jettySize=auto;html=1;entryX=0.25;entryY=0;entryDx=0;entryDy=0;endArrow=none;endFill=0;" parent="1" source="ijYZeFkr2vpScU7XpiKA-83" target="ijYZeFkr2vpScU7XpiKA-3" edge="1">
          <mxGeometry relative="1" as="geometry">
            <mxPoint x="415" y="245" as="targetPoint" />
          </mxGeometry>
        </mxCell>
        <mxCell id="ijYZeFkr2vpScU7XpiKA-83" value="&lt;font face=&quot;Times New Roman&quot; style=&quot;font-size: 18px;&quot;&gt;Course_ID&lt;/font&gt;" style="ellipse;whiteSpace=wrap;html=1;align=center;fontStyle=4;" parent="1" vertex="1">
          <mxGeometry x="370" y="112.5" width="90" height="35" as="geometry" />
        </mxCell>
        <mxCell id="ijYZeFkr2vpScU7XpiKA-133" value="" style="rounded=0;orthogonalLoop=1;jettySize=auto;html=1;entryX=0.75;entryY=0;entryDx=0;entryDy=0;endArrow=none;endFill=0;" parent="1" source="ijYZeFkr2vpScU7XpiKA-91" target="ijYZeFkr2vpScU7XpiKA-3" edge="1">
          <mxGeometry relative="1" as="geometry">
            <mxPoint x="525" y="250" as="targetPoint" />
          </mxGeometry>
        </mxCell>
        <mxCell id="ijYZeFkr2vpScU7XpiKA-91" value="&lt;font face=&quot;Times New Roman&quot;&gt;&lt;span style=&quot;font-size: 18px;&quot;&gt;Course_Name&lt;/span&gt;&lt;/font&gt;" style="ellipse;whiteSpace=wrap;html=1;align=center;" parent="1" vertex="1">
          <mxGeometry x="470" y="110" width="110" height="40" as="geometry" />
        </mxCell>
        <mxCell id="ijYZeFkr2vpScU7XpiKA-6" value="&lt;font face=&quot;Times New Roman&quot; style=&quot;font-size: 18px;&quot;&gt;teach&lt;/font&gt;" style="shape=rhombus;perimeter=rhombusPerimeter;whiteSpace=wrap;html=1;align=center;" parent="1" vertex="1">
          <mxGeometry x="560" y="275" width="70" height="50" as="geometry" />
        </mxCell>
        <mxCell id="ijYZeFkr2vpScU7XpiKA-97" value="" style="endArrow=none;html=1;rounded=0;entryX=0;entryY=0.5;entryDx=0;entryDy=0;" parent="1" target="ijYZeFkr2vpScU7XpiKA-3" edge="1">
          <mxGeometry relative="1" as="geometry">
            <mxPoint x="425" y="299.5" as="sourcePoint" />
            <mxPoint x="560" y="300" as="targetPoint" />
            <Array as="points" />
          </mxGeometry>
        </mxCell>
        <mxCell id="ijYZeFkr2vpScU7XpiKA-98" value="1" style="resizable=0;html=1;whiteSpace=wrap;align=left;verticalAlign=bottom;" parent="ijYZeFkr2vpScU7XpiKA-97" connectable="0" vertex="1">
          <mxGeometry x="-1" relative="1" as="geometry" />
        </mxCell>
        <mxCell id="ijYZeFkr2vpScU7XpiKA-99" value="" style="endArrow=none;html=1;rounded=0;" parent="1" target="ijYZeFkr2vpScU7XpiKA-5" edge="1">
          <mxGeometry relative="1" as="geometry">
            <mxPoint x="260" y="299.5" as="sourcePoint" />
            <mxPoint x="420" y="304" as="targetPoint" />
          </mxGeometry>
        </mxCell>
        <mxCell id="ijYZeFkr2vpScU7XpiKA-5" value="&lt;font face=&quot;Times New Roman&quot; style=&quot;font-size: 18px;&quot;&gt;enrolls&lt;/font&gt;" style="shape=rhombus;perimeter=rhombusPerimeter;whiteSpace=wrap;html=1;align=center;" parent="1" vertex="1">
          <mxGeometry x="245" y="278" width="80" height="50" as="geometry" />
        </mxCell>
        <mxCell id="ijYZeFkr2vpScU7XpiKA-125" value="" style="rounded=0;orthogonalLoop=1;jettySize=auto;html=1;entryX=0.111;entryY=0;entryDx=0;entryDy=0;entryPerimeter=0;endArrow=none;endFill=0;" parent="1" source="ijYZeFkr2vpScU7XpiKA-123" target="ijYZeFkr2vpScU7XpiKA-4" edge="1">
          <mxGeometry relative="1" as="geometry">
            <mxPoint x="690" y="260" as="targetPoint" />
            <Array as="points">
              <mxPoint x="750" y="280" />
            </Array>
          </mxGeometry>
        </mxCell>
        <mxCell id="ijYZeFkr2vpScU7XpiKA-123" value="&lt;font face=&quot;Times New Roman&quot; style=&quot;font-size: 18px;&quot;&gt;Faculty_ID&lt;/font&gt;" style="ellipse;whiteSpace=wrap;html=1;align=center;fontStyle=4;" parent="1" vertex="1">
          <mxGeometry x="640" y="120" width="100" height="40" as="geometry" />
        </mxCell>
        <mxCell id="ijYZeFkr2vpScU7XpiKA-129" value="" style="rounded=0;orthogonalLoop=1;jettySize=auto;html=1;endArrow=none;endFill=0;" parent="1" source="ijYZeFkr2vpScU7XpiKA-127" edge="1">
          <mxGeometry relative="1" as="geometry">
            <mxPoint x="780" y="280" as="targetPoint" />
            <Array as="points" />
          </mxGeometry>
        </mxCell>
        <mxCell id="ijYZeFkr2vpScU7XpiKA-127" value="&lt;font face=&quot;Times New Roman&quot;&gt;&lt;span style=&quot;font-size: 18px;&quot;&gt;&amp;nbsp;Faculty_Name&lt;/span&gt;&lt;/font&gt;" style="ellipse;whiteSpace=wrap;html=1;align=center;" parent="1" vertex="1">
          <mxGeometry x="760" y="120" width="130" height="40" as="geometry" />
        </mxCell>
        <mxCell id="ijYZeFkr2vpScU7XpiKA-146" value="" style="rounded=0;orthogonalLoop=1;jettySize=auto;html=1;endArrow=none;endFill=0;" parent="1" edge="1">
          <mxGeometry relative="1" as="geometry">
            <mxPoint x="59.99847705391177" y="440.1557824096303" as="sourcePoint" />
            <mxPoint x="97.4005732484077" y="323" as="targetPoint" />
          </mxGeometry>
        </mxCell>
        <mxCell id="ijYZeFkr2vpScU7XpiKA-145" value="&lt;font face=&quot;Times New Roman&quot; style=&quot;font-size: 18px;&quot;&gt;Std_Contact&lt;/font&gt;" style="ellipse;whiteSpace=wrap;html=1;align=center;" parent="1" vertex="1">
          <mxGeometry x="20" y="440" width="100" height="40" as="geometry" />
        </mxCell>
        <mxCell id="ijYZeFkr2vpScU7XpiKA-148" value="" style="rounded=0;orthogonalLoop=1;jettySize=auto;html=1;endArrow=none;endFill=0;" parent="1" edge="1">
          <mxGeometry relative="1" as="geometry">
            <mxPoint x="192.31285364179925" y="439.999851621746" as="sourcePoint" />
            <mxPoint x="139.99719745222941" y="322.69" as="targetPoint" />
          </mxGeometry>
        </mxCell>
        <mxCell id="ijYZeFkr2vpScU7XpiKA-147" value="&lt;font face=&quot;Times New Roman&quot; style=&quot;font-size: 18px;&quot;&gt;Std_Add&lt;/font&gt;" style="ellipse;whiteSpace=wrap;html=1;align=center;" parent="1" vertex="1">
          <mxGeometry x="140" y="440" width="100" height="40" as="geometry" />
        </mxCell>
        <mxCell id="ijYZeFkr2vpScU7XpiKA-150" value="" style="rounded=0;orthogonalLoop=1;jettySize=auto;html=1;endArrow=none;endFill=0;" parent="1" source="ijYZeFkr2vpScU7XpiKA-149" target="ijYZeFkr2vpScU7XpiKA-5" edge="1">
          <mxGeometry relative="1" as="geometry">
            <Array as="points">
              <mxPoint x="285" y="330" />
            </Array>
          </mxGeometry>
        </mxCell>
        <mxCell id="ijYZeFkr2vpScU7XpiKA-149" value="&lt;font style=&quot;font-size: 18px;&quot; face=&quot;Times New Roman&quot;&gt;Ref_by&lt;/font&gt;" style="ellipse;whiteSpace=wrap;html=1;align=center;" parent="1" vertex="1">
          <mxGeometry x="270" y="445" width="75" height="30" as="geometry" />
        </mxCell>
        <mxCell id="ijYZeFkr2vpScU7XpiKA-152" value="" style="rounded=0;orthogonalLoop=1;jettySize=auto;html=1;endArrow=none;endFill=0;entryX=0.25;entryY=1;entryDx=0;entryDy=0;" parent="1" source="ijYZeFkr2vpScU7XpiKA-151" target="ijYZeFkr2vpScU7XpiKA-4" edge="1">
          <mxGeometry relative="1" as="geometry" />
        </mxCell>
        <mxCell id="ijYZeFkr2vpScU7XpiKA-151" value="&lt;font size=&quot;3&quot; face=&quot;Times New Roman&quot;&gt;Faculty_Contact&lt;/font&gt;" style="ellipse;whiteSpace=wrap;html=1;align=center;" parent="1" vertex="1">
          <mxGeometry x="610" y="440" width="130" height="40" as="geometry" />
        </mxCell>
        <mxCell id="ijYZeFkr2vpScU7XpiKA-172" value="" style="rounded=0;orthogonalLoop=1;jettySize=auto;html=1;entryX=0.634;entryY=1.026;entryDx=0;entryDy=0;entryPerimeter=0;endArrow=none;endFill=0;" parent="1" edge="1">
          <mxGeometry relative="1" as="geometry">
            <mxPoint x="826.780382547496" y="439.11234376415354" as="sourcePoint" />
            <mxPoint x="790" y="319.99999999999994" as="targetPoint" />
          </mxGeometry>
        </mxCell>
        <mxCell id="ijYZeFkr2vpScU7XpiKA-162" value="&lt;font style=&quot;font-size: 18px;&quot; face=&quot;Times New Roman&quot;&gt;Faculty_Add&lt;/font&gt;" style="ellipse;whiteSpace=wrap;html=1;align=center;" parent="1" vertex="1">
          <mxGeometry x="780" y="440" width="110" height="40" as="geometry" />
        </mxCell>
        <mxCell id="ijYZeFkr2vpScU7XpiKA-180" value="" style="endArrow=none;html=1;rounded=0;entryX=0;entryY=0.5;entryDx=0;entryDy=0;" parent="1" target="ijYZeFkr2vpScU7XpiKA-5" edge="1">
          <mxGeometry relative="1" as="geometry">
            <mxPoint x="160" y="302.52" as="sourcePoint" />
            <mxPoint x="320" y="302.52" as="targetPoint" />
          </mxGeometry>
        </mxCell>
        <mxCell id="ijYZeFkr2vpScU7XpiKA-3" value="&lt;b&gt;&lt;font face=&quot;Times New Roman&quot; style=&quot;font-size: 22px;&quot;&gt;Course&lt;/font&gt;&lt;/b&gt;" style="whiteSpace=wrap;html=1;align=center;" parent="1" vertex="1">
          <mxGeometry x="420" y="278" width="80" height="40" as="geometry" />
        </mxCell>
        <mxCell id="ijYZeFkr2vpScU7XpiKA-185" value="" style="endArrow=none;html=1;rounded=0;" parent="1" edge="1">
          <mxGeometry relative="1" as="geometry">
            <mxPoint x="325" y="302.52" as="sourcePoint" />
            <mxPoint x="420" y="303" as="targetPoint" />
          </mxGeometry>
        </mxCell>
        <mxCell id="ijYZeFkr2vpScU7XpiKA-186" value="&lt;font style=&quot;font-size: 14px;&quot;&gt;&amp;nbsp; &amp;nbsp; M&lt;/font&gt;" style="text;html=1;align=center;verticalAlign=middle;resizable=0;points=[];autosize=1;strokeColor=none;fillColor=none;" parent="1" vertex="1">
          <mxGeometry x="135" y="278" width="50" height="30" as="geometry" />
        </mxCell>
        <mxCell id="ijYZeFkr2vpScU7XpiKA-189" value="&lt;font style=&quot;font-size: 14px;&quot;&gt;N&lt;/font&gt;" style="text;html=1;align=center;verticalAlign=middle;resizable=0;points=[];autosize=1;strokeColor=none;fillColor=none;" parent="1" vertex="1">
          <mxGeometry x="395" y="278" width="30" height="30" as="geometry" />
        </mxCell>
        <mxCell id="ijYZeFkr2vpScU7XpiKA-191" value="" style="endArrow=none;html=1;rounded=0;entryX=0;entryY=0.5;entryDx=0;entryDy=0;" parent="1" target="ijYZeFkr2vpScU7XpiKA-6" edge="1">
          <mxGeometry relative="1" as="geometry">
            <mxPoint x="500" y="299.52" as="sourcePoint" />
            <mxPoint x="660" y="299.52" as="targetPoint" />
          </mxGeometry>
        </mxCell>
        <mxCell id="ijYZeFkr2vpScU7XpiKA-192" value="" style="endArrow=none;html=1;rounded=0;entryX=0;entryY=0.5;entryDx=0;entryDy=0;" parent="1" target="ijYZeFkr2vpScU7XpiKA-4" edge="1">
          <mxGeometry relative="1" as="geometry">
            <mxPoint x="630" y="299.52" as="sourcePoint" />
            <mxPoint x="790" y="299.52" as="targetPoint" />
          </mxGeometry>
        </mxCell>
        <mxCell id="ijYZeFkr2vpScU7XpiKA-193" value="&lt;font size=&quot;3&quot;&gt;1&lt;/font&gt;" style="text;html=1;align=center;verticalAlign=middle;resizable=0;points=[];autosize=1;strokeColor=none;fillColor=none;" parent="1" vertex="1">
          <mxGeometry x="695" y="278" width="30" height="30" as="geometry" />
        </mxCell>
        <mxCell id="ijYZeFkr2vpScU7XpiKA-194" value="&amp;nbsp; &amp;nbsp; &lt;font size=&quot;3&quot;&gt;1&lt;/font&gt;" style="text;html=1;align=center;verticalAlign=middle;resizable=0;points=[];autosize=1;strokeColor=none;fillColor=none;" parent="1" vertex="1">
          <mxGeometry x="475" y="278" width="50" height="30" as="geometry" />
        </mxCell>
      </root>
    </mxGraphModel>
  </diagram>
  <diagram id="tzICwZd1QyUvfjpn1J2v" name="Page-2">
    <mxGraphModel dx="1050" dy="522" grid="1" gridSize="10" guides="1" tooltips="1" connect="1" arrows="1" fold="1" page="1" pageScale="1" pageWidth="850" pageHeight="1100" math="0" shadow="0">
      <root>
        <mxCell id="0" />
        <mxCell id="1" parent="0" />
        <mxCell id="NDJZhAPXiBH91c071ZWE-1" value="&lt;font face=&quot;Times New Roman&quot;&gt;&lt;span style=&quot;font-size: 18px;&quot;&gt;Car_Company&lt;/span&gt;&lt;/font&gt;" style="whiteSpace=wrap;html=1;align=center;" parent="1" vertex="1">
          <mxGeometry x="40" y="280" width="120" height="40" as="geometry" />
        </mxCell>
        <mxCell id="NDJZhAPXiBH91c071ZWE-2" value="&lt;font face=&quot;Times New Roman&quot; style=&quot;font-size: 18px;&quot;&gt;own&lt;/font&gt;" style="shape=rhombus;perimeter=rhombusPerimeter;whiteSpace=wrap;html=1;align=center;" parent="1" vertex="1">
          <mxGeometry x="240" y="280" width="80" height="40" as="geometry" />
        </mxCell>
        <mxCell id="6xr25XUhc1vTT1pp0_lv-2" value="&lt;font face=&quot;Times New Roman&quot; style=&quot;font-size: 18px;&quot;&gt;Customer&lt;/font&gt;" style="whiteSpace=wrap;html=1;align=center;" parent="1" vertex="1">
          <mxGeometry x="400" y="280" width="80" height="40" as="geometry" />
        </mxCell>
        <mxCell id="6xr25XUhc1vTT1pp0_lv-3" value="&lt;font face=&quot;Times New Roman&quot; style=&quot;font-size: 18px;&quot;&gt;Record&lt;/font&gt;" style="shape=rhombus;perimeter=rhombusPerimeter;whiteSpace=wrap;html=1;align=center;" parent="1" vertex="1">
          <mxGeometry x="570" y="280" width="90" height="40" as="geometry" />
        </mxCell>
        <mxCell id="6xr25XUhc1vTT1pp0_lv-4" value="&lt;font face=&quot;Times New Roman&quot; style=&quot;font-size: 18px;&quot;&gt;Accident&lt;/font&gt;" style="whiteSpace=wrap;html=1;align=center;" parent="1" vertex="1">
          <mxGeometry x="740" y="280" width="80" height="40" as="geometry" />
        </mxCell>
        <mxCell id="6xr25XUhc1vTT1pp0_lv-9" value="" style="rounded=0;orthogonalLoop=1;jettySize=auto;html=1;entryX=0.5;entryY=0;entryDx=0;entryDy=0;endArrow=none;endFill=0;" parent="1" source="6xr25XUhc1vTT1pp0_lv-7" target="NDJZhAPXiBH91c071ZWE-1" edge="1">
          <mxGeometry relative="1" as="geometry">
            <mxPoint x="100" y="250" as="targetPoint" />
          </mxGeometry>
        </mxCell>
        <mxCell id="6xr25XUhc1vTT1pp0_lv-7" value="&lt;font face=&quot;Times New Roman&quot; style=&quot;font-size: 18px;&quot;&gt;Company_ID&lt;/font&gt;" style="ellipse;whiteSpace=wrap;html=1;align=center;" parent="1" vertex="1">
          <mxGeometry x="10" y="120" width="110" height="40" as="geometry" />
        </mxCell>
        <mxCell id="6xr25XUhc1vTT1pp0_lv-16" value="" style="rounded=0;orthogonalLoop=1;jettySize=auto;html=1;entryX=0.75;entryY=0;entryDx=0;entryDy=0;endArrow=none;endFill=0;" parent="1" source="6xr25XUhc1vTT1pp0_lv-10" target="NDJZhAPXiBH91c071ZWE-1" edge="1">
          <mxGeometry relative="1" as="geometry">
            <mxPoint x="190" y="260" as="targetPoint" />
          </mxGeometry>
        </mxCell>
        <mxCell id="6xr25XUhc1vTT1pp0_lv-10" value="&lt;font face=&quot;Times New Roman&quot; style=&quot;font-size: 18px;&quot;&gt;Company_Name&lt;/font&gt;" style="ellipse;whiteSpace=wrap;html=1;align=center;" parent="1" vertex="1">
          <mxGeometry x="130" y="120" width="140" height="40" as="geometry" />
        </mxCell>
        <mxCell id="6xr25XUhc1vTT1pp0_lv-17" value="" style="endArrow=none;html=1;rounded=0;" parent="1" edge="1">
          <mxGeometry relative="1" as="geometry">
            <mxPoint x="160" y="299.5" as="sourcePoint" />
            <mxPoint x="240" y="300" as="targetPoint" />
          </mxGeometry>
        </mxCell>
        <mxCell id="6xr25XUhc1vTT1pp0_lv-18" value="" style="endArrow=none;html=1;rounded=0;" parent="1" edge="1">
          <mxGeometry relative="1" as="geometry">
            <mxPoint x="320" y="299.5" as="sourcePoint" />
            <mxPoint x="400" y="300" as="targetPoint" />
          </mxGeometry>
        </mxCell>
        <mxCell id="QnXizFUo_kTsK76CXWGF-2" value="&lt;font style=&quot;font-size: 14px;&quot;&gt;1&lt;/font&gt;" style="text;html=1;align=center;verticalAlign=middle;resizable=0;points=[];autosize=1;strokeColor=none;fillColor=none;" parent="1" vertex="1">
          <mxGeometry x="375" y="278" width="30" height="30" as="geometry" />
        </mxCell>
        <mxCell id="QnXizFUo_kTsK76CXWGF-5" value="" style="endArrow=none;html=1;rounded=0;" parent="1" edge="1">
          <mxGeometry relative="1" as="geometry">
            <mxPoint x="480" y="299.5" as="sourcePoint" />
            <mxPoint x="570" y="300" as="targetPoint" />
          </mxGeometry>
        </mxCell>
        <mxCell id="QnXizFUo_kTsK76CXWGF-7" value="" style="endArrow=none;html=1;rounded=0;entryX=0;entryY=0.5;entryDx=0;entryDy=0;" parent="1" target="6xr25XUhc1vTT1pp0_lv-4" edge="1">
          <mxGeometry relative="1" as="geometry">
            <mxPoint x="660" y="299.5" as="sourcePoint" />
            <mxPoint x="720" y="300" as="targetPoint" />
          </mxGeometry>
        </mxCell>
        <mxCell id="QnXizFUo_kTsK76CXWGF-11" value="&lt;font style=&quot;font-size: 14px;&quot;&gt;M&lt;/font&gt;" style="text;html=1;align=center;verticalAlign=middle;resizable=0;points=[];autosize=1;strokeColor=none;fillColor=none;" parent="1" vertex="1">
          <mxGeometry x="150" y="278" width="40" height="30" as="geometry" />
        </mxCell>
        <mxCell id="QnXizFUo_kTsK76CXWGF-18" value="" style="rounded=0;orthogonalLoop=1;jettySize=auto;html=1;entryX=0.25;entryY=0;entryDx=0;entryDy=0;endArrow=none;endFill=0;" parent="1" source="QnXizFUo_kTsK76CXWGF-13" target="6xr25XUhc1vTT1pp0_lv-2" edge="1">
          <mxGeometry relative="1" as="geometry">
            <mxPoint x="410" y="240" as="targetPoint" />
            <Array as="points">
              <mxPoint x="430" y="280" />
            </Array>
          </mxGeometry>
        </mxCell>
        <mxCell id="QnXizFUo_kTsK76CXWGF-13" value="&lt;font face=&quot;Times New Roman&quot; style=&quot;font-size: 18px;&quot;&gt;Customer_Name&lt;/font&gt;" style="ellipse;whiteSpace=wrap;html=1;align=center;" parent="1" vertex="1">
          <mxGeometry x="320" y="120" width="140" height="40" as="geometry" />
        </mxCell>
        <mxCell id="QnXizFUo_kTsK76CXWGF-21" value="" style="rounded=0;orthogonalLoop=1;jettySize=auto;html=1;entryX=0.75;entryY=0;entryDx=0;entryDy=0;endArrow=none;endFill=0;" parent="1" source="QnXizFUo_kTsK76CXWGF-19" target="6xr25XUhc1vTT1pp0_lv-2" edge="1">
          <mxGeometry relative="1" as="geometry" />
        </mxCell>
        <mxCell id="QnXizFUo_kTsK76CXWGF-19" value="&lt;font face=&quot;Times New Roman&quot; style=&quot;font-size: 18px;&quot;&gt;Customer_Number&lt;/font&gt;" style="ellipse;whiteSpace=wrap;html=1;align=center;" parent="1" vertex="1">
          <mxGeometry x="470" y="120" width="160" height="40" as="geometry" />
        </mxCell>
        <mxCell id="QnXizFUo_kTsK76CXWGF-24" value="" style="rounded=0;orthogonalLoop=1;jettySize=auto;html=1;entryX=0.25;entryY=0;entryDx=0;entryDy=0;endArrow=none;endFill=0;" parent="1" source="QnXizFUo_kTsK76CXWGF-22" target="6xr25XUhc1vTT1pp0_lv-4" edge="1">
          <mxGeometry relative="1" as="geometry">
            <mxPoint x="710" y="260" as="targetPoint" />
          </mxGeometry>
        </mxCell>
        <mxCell id="QnXizFUo_kTsK76CXWGF-22" value="&lt;font face=&quot;Times New Roman&quot; style=&quot;font-size: 18px;&quot;&gt;Car_ID&lt;/font&gt;" style="ellipse;whiteSpace=wrap;html=1;align=center;" parent="1" vertex="1">
          <mxGeometry x="680" y="125" width="80" height="30" as="geometry" />
        </mxCell>
        <mxCell id="QnXizFUo_kTsK76CXWGF-29" value="" style="rounded=0;orthogonalLoop=1;jettySize=auto;html=1;endArrow=none;endFill=0;" parent="1" source="QnXizFUo_kTsK76CXWGF-28" target="6xr25XUhc1vTT1pp0_lv-4" edge="1">
          <mxGeometry relative="1" as="geometry" />
        </mxCell>
        <mxCell id="QnXizFUo_kTsK76CXWGF-28" value="&lt;font face=&quot;Times New Roman&quot; style=&quot;font-size: 18px;&quot;&gt;Car_Model&lt;/font&gt;" style="ellipse;whiteSpace=wrap;html=1;align=center;" parent="1" vertex="1">
          <mxGeometry x="790" y="120" width="100" height="40" as="geometry" />
        </mxCell>
        <mxCell id="QnXizFUo_kTsK76CXWGF-35" value="" style="rounded=0;orthogonalLoop=1;jettySize=auto;html=1;endArrow=none;endFill=0;" parent="1" source="QnXizFUo_kTsK76CXWGF-34" target="NDJZhAPXiBH91c071ZWE-1" edge="1">
          <mxGeometry relative="1" as="geometry">
            <Array as="points">
              <mxPoint x="50" y="450" />
            </Array>
          </mxGeometry>
        </mxCell>
        <mxCell id="QnXizFUo_kTsK76CXWGF-34" value="&lt;font face=&quot;Times New Roman&quot; style=&quot;font-size: 18px;&quot;&gt;Company_Location&lt;/font&gt;" style="ellipse;whiteSpace=wrap;html=1;align=center;" parent="1" vertex="1">
          <mxGeometry x="5" y="440" width="155" height="40" as="geometry" />
        </mxCell>
        <mxCell id="QnXizFUo_kTsK76CXWGF-39" value="" style="rounded=0;orthogonalLoop=1;jettySize=auto;html=1;entryX=0.25;entryY=1;entryDx=0;entryDy=0;endArrow=none;endFill=0;" parent="1" source="QnXizFUo_kTsK76CXWGF-37" target="6xr25XUhc1vTT1pp0_lv-2" edge="1">
          <mxGeometry relative="1" as="geometry">
            <mxPoint x="400" y="340" as="targetPoint" />
          </mxGeometry>
        </mxCell>
        <mxCell id="QnXizFUo_kTsK76CXWGF-37" value="&lt;font face=&quot;Times New Roman&quot; style=&quot;font-size: 18px;&quot;&gt;Customer_Address&lt;/font&gt;" style="ellipse;whiteSpace=wrap;html=1;align=center;" parent="1" vertex="1">
          <mxGeometry x="315" y="440" width="150" height="40" as="geometry" />
        </mxCell>
        <mxCell id="QnXizFUo_kTsK76CXWGF-42" value="" style="rounded=0;orthogonalLoop=1;jettySize=auto;html=1;endArrow=none;endFill=0;" parent="1" source="QnXizFUo_kTsK76CXWGF-40" edge="1">
          <mxGeometry relative="1" as="geometry">
            <mxPoint x="140" y="320" as="targetPoint" />
          </mxGeometry>
        </mxCell>
        <mxCell id="QnXizFUo_kTsK76CXWGF-40" value="&lt;font face=&quot;Times New Roman&quot; style=&quot;font-size: 18px;&quot;&gt;Company_&lt;br&gt;&lt;/font&gt;&lt;font face=&quot;Times New Roman&quot; style=&quot;font-size: 18px;&quot;&gt;Brach_Code&lt;/font&gt;" style="ellipse;whiteSpace=wrap;html=1;align=center;" parent="1" vertex="1">
          <mxGeometry x="170" y="440" width="130" height="50" as="geometry" />
        </mxCell>
        <mxCell id="dzleij2mnk_evYzjF3PP-2" value="" style="rounded=0;orthogonalLoop=1;jettySize=auto;html=1;endArrow=none;endFill=0;" parent="1" source="dzleij2mnk_evYzjF3PP-1" target="6xr25XUhc1vTT1pp0_lv-4" edge="1">
          <mxGeometry relative="1" as="geometry" />
        </mxCell>
        <mxCell id="dzleij2mnk_evYzjF3PP-1" value="&lt;font face=&quot;Times New Roman&quot; style=&quot;font-size: 18px;&quot;&gt;Report_Number&lt;/font&gt;" style="ellipse;whiteSpace=wrap;html=1;align=center;" parent="1" vertex="1">
          <mxGeometry x="610" y="430" width="130" height="40" as="geometry" />
        </mxCell>
        <mxCell id="Ti7N1V6kJyHKn3jROZo2-3" value="" style="rounded=0;orthogonalLoop=1;jettySize=auto;html=1;entryX=0.75;entryY=1;entryDx=0;entryDy=0;endArrow=none;endFill=0;" edge="1" parent="1" source="Ti7N1V6kJyHKn3jROZo2-1" target="6xr25XUhc1vTT1pp0_lv-4">
          <mxGeometry relative="1" as="geometry">
            <mxPoint x="820" y="340" as="targetPoint" />
            <Array as="points">
              <mxPoint x="780" y="320" />
            </Array>
          </mxGeometry>
        </mxCell>
        <mxCell id="Ti7N1V6kJyHKn3jROZo2-1" value="&lt;font face=&quot;Times New Roman&quot; style=&quot;font-size: 18px;&quot;&gt;Date&lt;/font&gt;" style="ellipse;whiteSpace=wrap;html=1;align=center;" vertex="1" parent="1">
          <mxGeometry x="750" y="430" width="80" height="40" as="geometry" />
        </mxCell>
        <mxCell id="Ti7N1V6kJyHKn3jROZo2-7" value="" style="rounded=0;orthogonalLoop=1;jettySize=auto;html=1;entryX=0.905;entryY=0.99;entryDx=0;entryDy=0;entryPerimeter=0;endArrow=none;endFill=0;" edge="1" parent="1" source="Ti7N1V6kJyHKn3jROZo2-5" target="6xr25XUhc1vTT1pp0_lv-4">
          <mxGeometry relative="1" as="geometry">
            <mxPoint x="880" y="320" as="targetPoint" />
            <Array as="points">
              <mxPoint x="800" y="320" />
            </Array>
          </mxGeometry>
        </mxCell>
        <mxCell id="Ti7N1V6kJyHKn3jROZo2-5" value="&lt;font face=&quot;Times New Roman&quot; style=&quot;font-size: 18px;&quot;&gt;Location&lt;/font&gt;" style="ellipse;whiteSpace=wrap;html=1;align=center;" vertex="1" parent="1">
          <mxGeometry x="840" y="430" width="100" height="40" as="geometry" />
        </mxCell>
        <mxCell id="Ti7N1V6kJyHKn3jROZo2-9" value="&lt;span style=&quot;font-size: 14px;&quot;&gt;N&lt;/span&gt;" style="text;html=1;align=center;verticalAlign=middle;resizable=0;points=[];autosize=1;strokeColor=none;fillColor=none;" vertex="1" parent="1">
          <mxGeometry x="555" y="278" width="30" height="30" as="geometry" />
        </mxCell>
        <mxCell id="Ti7N1V6kJyHKn3jROZo2-11" value="&lt;font style=&quot;font-size: 14px;&quot;&gt;&amp;nbsp; &amp;nbsp; M&lt;/font&gt;" style="text;html=1;align=center;verticalAlign=middle;resizable=0;points=[];autosize=1;strokeColor=none;fillColor=none;" vertex="1" parent="1">
          <mxGeometry x="695" y="278" width="50" height="30" as="geometry" />
        </mxCell>
        <mxCell id="Ti7N1V6kJyHKn3jROZo2-14" value="" style="rounded=0;orthogonalLoop=1;jettySize=auto;html=1;entryX=0.75;entryY=1;entryDx=0;entryDy=0;endArrow=none;endFill=0;" edge="1" parent="1" source="Ti7N1V6kJyHKn3jROZo2-12" target="6xr25XUhc1vTT1pp0_lv-2">
          <mxGeometry relative="1" as="geometry">
            <mxPoint x="520" y="345" as="targetPoint" />
          </mxGeometry>
        </mxCell>
        <mxCell id="Ti7N1V6kJyHKn3jROZo2-12" value="&lt;font face=&quot;Times New Roman&quot; style=&quot;font-size: 18px;&quot;&gt;Customer_ID&lt;/font&gt;" style="ellipse;whiteSpace=wrap;html=1;align=center;" vertex="1" parent="1">
          <mxGeometry x="470" y="445" width="110" height="40" as="geometry" />
        </mxCell>
      </root>
    </mxGraphModel>
  </diagram>
  <diagram id="uW-Z7rvR6bw34EWU58Tm" name="Page-3">
    <mxGraphModel dx="1050" dy="1622" grid="1" gridSize="10" guides="1" tooltips="1" connect="1" arrows="1" fold="1" page="1" pageScale="1" pageWidth="850" pageHeight="1100" background="none" math="0" shadow="0">
      <root>
        <mxCell id="0" />
        <mxCell id="1" parent="0" />
        <mxCell id="9n5FWk1rw4rTjRy4ZLDH-1" value="&lt;font face=&quot;Times New Roman&quot; style=&quot;font-size: 18px;&quot;&gt;Student&lt;/font&gt;" style="whiteSpace=wrap;html=1;align=center;rounded=1;labelBackgroundColor=none;" parent="1" vertex="1">
          <mxGeometry x="70" y="320" width="90" height="40" as="geometry" />
        </mxCell>
        <mxCell id="9n5FWk1rw4rTjRy4ZLDH-4" value="&lt;font face=&quot;Times New Roman&quot; style=&quot;font-size: 18px;&quot;&gt;Course_Offering&lt;/font&gt;" style="shape=ext;margin=3;double=1;whiteSpace=wrap;html=1;align=center;rounded=1;labelBackgroundColor=none;" parent="1" vertex="1">
          <mxGeometry x="320" y="120" width="140" height="40" as="geometry" />
        </mxCell>
        <mxCell id="9n5FWk1rw4rTjRy4ZLDH-13" value="&lt;font face=&quot;Times New Roman&quot; style=&quot;font-size: 18px;&quot;&gt;enroll&lt;/font&gt;" style="shape=rhombus;perimeter=rhombusPerimeter;whiteSpace=wrap;html=1;align=center;rounded=1;labelBackgroundColor=none;" parent="1" vertex="1">
          <mxGeometry x="170" y="194" width="105" height="56" as="geometry" />
        </mxCell>
        <mxCell id="KOeo-1UNWqgR8L-i1EB0-2" value="&lt;font face=&quot;Times New Roman&quot; style=&quot;font-size: 18px;&quot;&gt;teachers&amp;nbsp;&lt;/font&gt;" style="shape=rhombus;perimeter=rhombusPerimeter;whiteSpace=wrap;html=1;align=center;rounded=1;labelBackgroundColor=none;" parent="1" vertex="1">
          <mxGeometry x="540" y="190" width="100" height="60" as="geometry" />
        </mxCell>
        <mxCell id="KOeo-1UNWqgR8L-i1EB0-4" value="" style="endArrow=none;html=1;rounded=1;labelBackgroundColor=none;fontColor=default;" parent="1" edge="1">
          <mxGeometry relative="1" as="geometry">
            <mxPoint x="130" y="320" as="sourcePoint" />
            <mxPoint x="200" y="240" as="targetPoint" />
          </mxGeometry>
        </mxCell>
        <mxCell id="KOeo-1UNWqgR8L-i1EB0-5" value="" style="endArrow=none;html=1;rounded=1;labelBackgroundColor=none;fontColor=default;" parent="1" edge="1">
          <mxGeometry relative="1" as="geometry">
            <mxPoint x="240" y="200" as="sourcePoint" />
            <mxPoint x="320" y="140" as="targetPoint" />
          </mxGeometry>
        </mxCell>
        <mxCell id="KOeo-1UNWqgR8L-i1EB0-6" value="" style="endArrow=none;html=1;rounded=1;entryX=0;entryY=0;entryDx=0;entryDy=0;labelBackgroundColor=none;fontColor=default;" parent="1" target="KOeo-1UNWqgR8L-i1EB0-2" edge="1">
          <mxGeometry relative="1" as="geometry">
            <mxPoint x="460" y="140" as="sourcePoint" />
            <mxPoint x="580" y="210" as="targetPoint" />
          </mxGeometry>
        </mxCell>
        <mxCell id="KOeo-1UNWqgR8L-i1EB0-9" value="" style="endArrow=none;html=1;rounded=1;labelBackgroundColor=none;fontColor=default;" parent="1" edge="1">
          <mxGeometry relative="1" as="geometry">
            <mxPoint x="610" y="240" as="sourcePoint" />
            <mxPoint x="670" y="320" as="targetPoint" />
          </mxGeometry>
        </mxCell>
        <mxCell id="KOeo-1UNWqgR8L-i1EB0-12" value="&lt;font face=&quot;Times New Roman&quot; style=&quot;font-size: 18px;&quot;&gt;offers&lt;/font&gt;" style="shape=rhombus;perimeter=rhombusPerimeter;whiteSpace=wrap;html=1;align=center;rounded=1;labelBackgroundColor=none;" parent="1" vertex="1">
          <mxGeometry x="345" y="278" width="90" height="50" as="geometry" />
        </mxCell>
        <mxCell id="ISStRvJXKrKH4Mhf0k8z-1" value="" style="shape=link;html=1;rounded=1;labelBackgroundColor=none;fontColor=default;" parent="1" edge="1">
          <mxGeometry relative="1" as="geometry">
            <mxPoint x="389.55" y="160" as="sourcePoint" />
            <mxPoint x="389.5544554455446" y="160.24752475247533" as="targetPoint" />
          </mxGeometry>
        </mxCell>
        <mxCell id="ISStRvJXKrKH4Mhf0k8z-4" value="" style="shape=link;html=1;rounded=1;exitX=0.5;exitY=1;exitDx=0;exitDy=0;labelBackgroundColor=none;fontColor=default;" parent="1" source="9n5FWk1rw4rTjRy4ZLDH-4" edge="1">
          <mxGeometry relative="1" as="geometry">
            <mxPoint x="389.55" y="210" as="sourcePoint" />
            <mxPoint x="390" y="280" as="targetPoint" />
          </mxGeometry>
        </mxCell>
        <mxCell id="ISStRvJXKrKH4Mhf0k8z-6" value="&lt;font style=&quot;font-size: 14px;&quot;&gt;N&lt;/font&gt;" style="text;html=1;align=center;verticalAlign=middle;resizable=0;points=[];autosize=1;rounded=1;labelBackgroundColor=none;" parent="1" vertex="1">
          <mxGeometry x="545" y="178" width="30" height="30" as="geometry" />
        </mxCell>
        <mxCell id="ISStRvJXKrKH4Mhf0k8z-8" value="&lt;span style=&quot;font-size: 14px;&quot;&gt;&amp;nbsp;M&lt;/span&gt;" style="text;html=1;align=center;verticalAlign=middle;resizable=0;points=[];autosize=1;rounded=1;labelBackgroundColor=none;" parent="1" vertex="1">
          <mxGeometry x="650" y="298" width="40" height="30" as="geometry" />
        </mxCell>
        <mxCell id="TixmDoIBfifaujmpM2rf-1" value="&lt;font style=&quot;font-size: 14px;&quot;&gt;1&lt;/font&gt;" style="text;html=1;align=center;verticalAlign=middle;resizable=0;points=[];autosize=1;rounded=1;labelBackgroundColor=none;" parent="1" vertex="1">
          <mxGeometry x="365" y="258" width="30" height="30" as="geometry" />
        </mxCell>
        <mxCell id="TixmDoIBfifaujmpM2rf-4" value="" style="endArrow=none;html=1;rounded=1;labelBackgroundColor=none;fontColor=default;" parent="1" source="KOeo-1UNWqgR8L-i1EB0-16" edge="1">
          <mxGeometry relative="1" as="geometry">
            <mxPoint x="389.55" y="330" as="sourcePoint" />
            <mxPoint x="389.55" y="440.72726162997157" as="targetPoint" />
          </mxGeometry>
        </mxCell>
        <mxCell id="KOeo-1UNWqgR8L-i1EB0-16" value="&lt;font face=&quot;Times New Roman&quot; style=&quot;font-size: 18px;&quot;&gt;Course&lt;/font&gt;" style="whiteSpace=wrap;html=1;align=center;rounded=1;labelBackgroundColor=none;" parent="1" vertex="1">
          <mxGeometry x="345" y="430" width="90" height="40" as="geometry" />
        </mxCell>
        <mxCell id="TixmDoIBfifaujmpM2rf-8" value="" style="endArrow=none;html=1;rounded=1;entryX=0.5;entryY=0;entryDx=0;entryDy=0;labelBackgroundColor=none;fontColor=default;" parent="1" target="KOeo-1UNWqgR8L-i1EB0-16" edge="1">
          <mxGeometry relative="1" as="geometry">
            <mxPoint x="389.55" y="328" as="sourcePoint" />
            <mxPoint x="389.55" y="438" as="targetPoint" />
          </mxGeometry>
        </mxCell>
        <mxCell id="TixmDoIBfifaujmpM2rf-9" value="&lt;font style=&quot;font-size: 14px;&quot;&gt;1&lt;/font&gt;" style="text;html=1;align=center;verticalAlign=middle;resizable=0;points=[];autosize=1;rounded=1;labelBackgroundColor=none;" parent="1" vertex="1">
          <mxGeometry x="365" y="408" width="30" height="30" as="geometry" />
        </mxCell>
        <mxCell id="TixmDoIBfifaujmpM2rf-23" value="" style="rounded=1;orthogonalLoop=1;jettySize=auto;html=1;entryX=0.25;entryY=1;entryDx=0;entryDy=0;endArrow=none;endFill=0;labelBackgroundColor=none;fontColor=default;" parent="1" source="TixmDoIBfifaujmpM2rf-21" target="KOeo-1UNWqgR8L-i1EB0-16" edge="1">
          <mxGeometry relative="1" as="geometry">
            <mxPoint x="280" y="450" as="targetPoint" />
          </mxGeometry>
        </mxCell>
        <mxCell id="TixmDoIBfifaujmpM2rf-21" value="&lt;font face=&quot;Times New Roman&quot; style=&quot;font-size: 18px;&quot;&gt;Number&lt;/font&gt;" style="ellipse;whiteSpace=wrap;html=1;align=center;rounded=1;labelBackgroundColor=none;" parent="1" vertex="1">
          <mxGeometry x="200" y="560" width="80" height="30" as="geometry" />
        </mxCell>
        <mxCell id="TixmDoIBfifaujmpM2rf-25" value="" style="rounded=1;orthogonalLoop=1;jettySize=auto;html=1;endArrow=none;endFill=0;labelBackgroundColor=none;fontColor=default;" parent="1" source="TixmDoIBfifaujmpM2rf-24" target="KOeo-1UNWqgR8L-i1EB0-16" edge="1">
          <mxGeometry relative="1" as="geometry" />
        </mxCell>
        <mxCell id="TixmDoIBfifaujmpM2rf-24" value="&lt;font face=&quot;Times New Roman&quot; style=&quot;font-size: 18px;&quot;&gt;Title&lt;/font&gt;" style="ellipse;whiteSpace=wrap;html=1;align=center;rounded=1;labelBackgroundColor=none;" parent="1" vertex="1">
          <mxGeometry x="290" y="562.5" width="75" height="30" as="geometry" />
        </mxCell>
        <mxCell id="TixmDoIBfifaujmpM2rf-27" value="" style="rounded=1;orthogonalLoop=1;jettySize=auto;html=1;endArrow=none;endFill=0;labelBackgroundColor=none;fontColor=default;" parent="1" source="TixmDoIBfifaujmpM2rf-26" target="KOeo-1UNWqgR8L-i1EB0-16" edge="1">
          <mxGeometry relative="1" as="geometry" />
        </mxCell>
        <mxCell id="TixmDoIBfifaujmpM2rf-26" value="&lt;font face=&quot;Times New Roman&quot; style=&quot;font-size: 18px;&quot;&gt;Credit_hours&lt;/font&gt;" style="ellipse;whiteSpace=wrap;html=1;align=center;rounded=1;labelBackgroundColor=none;" parent="1" vertex="1">
          <mxGeometry x="380" y="562.5" width="110" height="30" as="geometry" />
        </mxCell>
        <mxCell id="TixmDoIBfifaujmpM2rf-30" value="" style="rounded=1;orthogonalLoop=1;jettySize=auto;html=1;entryX=0.75;entryY=1;entryDx=0;entryDy=0;endArrow=none;endFill=0;labelBackgroundColor=none;fontColor=default;" parent="1" source="TixmDoIBfifaujmpM2rf-28" target="KOeo-1UNWqgR8L-i1EB0-16" edge="1">
          <mxGeometry relative="1" as="geometry">
            <mxPoint x="550" y="455" as="targetPoint" />
            <Array as="points">
              <mxPoint x="420" y="480" />
            </Array>
          </mxGeometry>
        </mxCell>
        <mxCell id="TixmDoIBfifaujmpM2rf-28" value="&lt;font face=&quot;Times New Roman&quot; style=&quot;font-size: 18px;&quot;&gt;Syllabus&lt;/font&gt;" style="ellipse;whiteSpace=wrap;html=1;align=center;rounded=1;labelBackgroundColor=none;" parent="1" vertex="1">
          <mxGeometry x="500" y="565" width="80" height="25" as="geometry" />
        </mxCell>
        <mxCell id="TixmDoIBfifaujmpM2rf-38" value="" style="rounded=1;orthogonalLoop=1;jettySize=auto;html=1;endArrow=none;endFill=0;labelBackgroundColor=none;fontColor=default;" parent="1" source="TixmDoIBfifaujmpM2rf-32" target="9n5FWk1rw4rTjRy4ZLDH-4" edge="1">
          <mxGeometry relative="1" as="geometry">
            <Array as="points">
              <mxPoint x="350" y="120" />
            </Array>
          </mxGeometry>
        </mxCell>
        <mxCell id="TixmDoIBfifaujmpM2rf-32" value="&lt;font face=&quot;Times New Roman&quot; style=&quot;font-size: 14px;&quot;&gt;Course_Number&lt;/font&gt;" style="ellipse;whiteSpace=wrap;html=1;align=center;rounded=1;labelBackgroundColor=none;" parent="1" vertex="1">
          <mxGeometry x="160" width="100" height="30" as="geometry" />
        </mxCell>
        <mxCell id="TixmDoIBfifaujmpM2rf-44" value="" style="rounded=1;orthogonalLoop=1;jettySize=auto;html=1;endArrow=none;endFill=0;exitX=0.45;exitY=0.833;exitDx=0;exitDy=0;exitPerimeter=0;labelBackgroundColor=none;fontColor=default;" parent="1" source="TixmDoIBfifaujmpM2rf-35" target="9n5FWk1rw4rTjRy4ZLDH-4" edge="1">
          <mxGeometry relative="1" as="geometry">
            <mxPoint x="320" y="20" as="sourcePoint" />
          </mxGeometry>
        </mxCell>
        <mxCell id="TixmDoIBfifaujmpM2rf-35" value="&lt;font face=&quot;Times New Roman&quot; style=&quot;font-size: 14px;&quot;&gt;Year/Semester&lt;/font&gt;" style="ellipse;whiteSpace=wrap;html=1;align=center;rounded=1;labelBackgroundColor=none;" parent="1" vertex="1">
          <mxGeometry x="265" y="-15" width="100" height="30" as="geometry" />
        </mxCell>
        <mxCell id="TixmDoIBfifaujmpM2rf-41" value="" style="rounded=1;orthogonalLoop=1;jettySize=auto;html=1;entryX=0.5;entryY=0;entryDx=0;entryDy=0;endArrow=none;endFill=0;exitX=0.376;exitY=0.953;exitDx=0;exitDy=0;exitPerimeter=0;labelBackgroundColor=none;fontColor=default;" parent="1" source="TixmDoIBfifaujmpM2rf-39" target="9n5FWk1rw4rTjRy4ZLDH-4" edge="1">
          <mxGeometry relative="1" as="geometry">
            <mxPoint x="497.45288164365076" y="29.998116040320475" as="sourcePoint" />
            <mxPoint x="425.00000000000006" y="113.18000000000004" as="targetPoint" />
          </mxGeometry>
        </mxCell>
        <mxCell id="TixmDoIBfifaujmpM2rf-39" value="&lt;font face=&quot;Times New Roman&quot;&gt;&lt;span style=&quot;font-size: 14px;&quot;&gt;Classroom&lt;/span&gt;&lt;/font&gt;" style="ellipse;whiteSpace=wrap;html=1;align=center;rounded=1;labelBackgroundColor=none;" parent="1" vertex="1">
          <mxGeometry x="375" y="-15" width="85" height="25" as="geometry" />
        </mxCell>
        <mxCell id="TixmDoIBfifaujmpM2rf-48" value="" style="rounded=1;orthogonalLoop=1;jettySize=auto;html=1;endArrow=none;endFill=0;labelBackgroundColor=none;fontColor=default;" parent="1" source="TixmDoIBfifaujmpM2rf-42" edge="1">
          <mxGeometry relative="1" as="geometry">
            <mxPoint x="410" y="120" as="targetPoint" />
          </mxGeometry>
        </mxCell>
        <mxCell id="TixmDoIBfifaujmpM2rf-42" value="&lt;font face=&quot;Times New Roman&quot; style=&quot;font-size: 14px;&quot;&gt;Section_Number&lt;/font&gt;" style="ellipse;whiteSpace=wrap;html=1;align=center;rounded=1;labelBackgroundColor=none;" parent="1" vertex="1">
          <mxGeometry x="470" y="-20" width="100" height="35" as="geometry" />
        </mxCell>
        <mxCell id="TixmDoIBfifaujmpM2rf-51" value="" style="rounded=1;orthogonalLoop=1;jettySize=auto;html=1;entryX=0.857;entryY=0;entryDx=0;entryDy=0;entryPerimeter=0;endArrow=none;endFill=0;labelBackgroundColor=none;fontColor=default;" parent="1" source="TixmDoIBfifaujmpM2rf-49" target="9n5FWk1rw4rTjRy4ZLDH-4" edge="1">
          <mxGeometry relative="1" as="geometry">
            <mxPoint x="630" y="125" as="targetPoint" />
          </mxGeometry>
        </mxCell>
        <mxCell id="TixmDoIBfifaujmpM2rf-49" value="&lt;font face=&quot;Times New Roman&quot; style=&quot;font-size: 14px;&quot;&gt;Instructors_Time&lt;/font&gt;" style="ellipse;whiteSpace=wrap;html=1;align=center;rounded=1;labelBackgroundColor=none;" parent="1" vertex="1">
          <mxGeometry x="575" y="-10" width="105" height="30" as="geometry" />
        </mxCell>
        <mxCell id="TixmDoIBfifaujmpM2rf-57" value="" style="rounded=1;orthogonalLoop=1;jettySize=auto;html=1;endArrow=none;endFill=0;entryX=0.389;entryY=0.99;entryDx=0;entryDy=0;entryPerimeter=0;labelBackgroundColor=none;fontColor=default;" parent="1" source="TixmDoIBfifaujmpM2rf-52" target="9n5FWk1rw4rTjRy4ZLDH-1" edge="1">
          <mxGeometry relative="1" as="geometry">
            <mxPoint x="90" y="360" as="targetPoint" />
          </mxGeometry>
        </mxCell>
        <mxCell id="TixmDoIBfifaujmpM2rf-52" value="&lt;font face=&quot;Times New Roman&quot; style=&quot;font-size: 18px;&quot;&gt;Std_ID&lt;/font&gt;" style="ellipse;whiteSpace=wrap;html=1;align=center;rounded=1;labelBackgroundColor=none;" parent="1" vertex="1">
          <mxGeometry y="475" width="80" height="20" as="geometry" />
        </mxCell>
        <mxCell id="TixmDoIBfifaujmpM2rf-65" value="" style="rounded=1;orthogonalLoop=1;jettySize=auto;html=1;endArrow=none;endFill=0;exitX=0.36;exitY=0.03;exitDx=0;exitDy=0;exitPerimeter=0;labelBackgroundColor=none;fontColor=default;" parent="1" source="TixmDoIBfifaujmpM2rf-59" edge="1">
          <mxGeometry relative="1" as="geometry">
            <mxPoint x="122" y="360" as="targetPoint" />
          </mxGeometry>
        </mxCell>
        <mxCell id="TixmDoIBfifaujmpM2rf-59" value="&lt;font face=&quot;Times New Roman&quot; style=&quot;font-size: 18px;&quot;&gt;Std_Name&lt;/font&gt;" style="ellipse;whiteSpace=wrap;html=1;align=center;rounded=1;labelBackgroundColor=none;" parent="1" vertex="1">
          <mxGeometry x="90" y="470" width="90" height="30" as="geometry" />
        </mxCell>
        <mxCell id="TixmDoIBfifaujmpM2rf-64" value="" style="rounded=1;orthogonalLoop=1;jettySize=auto;html=1;entryX=0.75;entryY=1;entryDx=0;entryDy=0;endArrow=none;endFill=0;labelBackgroundColor=none;fontColor=default;" parent="1" source="TixmDoIBfifaujmpM2rf-62" target="9n5FWk1rw4rTjRy4ZLDH-1" edge="1">
          <mxGeometry relative="1" as="geometry">
            <mxPoint x="230" y="365.0000000000002" as="targetPoint" />
          </mxGeometry>
        </mxCell>
        <mxCell id="TixmDoIBfifaujmpM2rf-62" value="&lt;font face=&quot;Times New Roman&quot; style=&quot;font-size: 18px;&quot;&gt;Program&lt;/font&gt;" style="ellipse;whiteSpace=wrap;html=1;align=center;rounded=1;labelBackgroundColor=none;" parent="1" vertex="1">
          <mxGeometry x="185" y="470" width="80" height="30" as="geometry" />
        </mxCell>
        <mxCell id="TixmDoIBfifaujmpM2rf-68" value="" style="rounded=1;orthogonalLoop=1;jettySize=auto;html=1;entryX=0.25;entryY=1;entryDx=0;entryDy=0;endArrow=none;endFill=0;labelBackgroundColor=none;fontColor=default;" parent="1" source="TixmDoIBfifaujmpM2rf-66" target="KOeo-1UNWqgR8L-i1EB0-1" edge="1">
          <mxGeometry relative="1" as="geometry">
            <mxPoint x="625" y="395.0000000000002" as="targetPoint" />
          </mxGeometry>
        </mxCell>
        <mxCell id="TixmDoIBfifaujmpM2rf-66" value="&lt;font face=&quot;Times New Roman&quot; style=&quot;font-size: 14px;&quot;&gt;ID-Number&lt;/font&gt;" style="ellipse;whiteSpace=wrap;html=1;align=center;rounded=1;labelBackgroundColor=none;" parent="1" vertex="1">
          <mxGeometry x="540" y="490" width="85" height="25" as="geometry" />
        </mxCell>
        <mxCell id="TixmDoIBfifaujmpM2rf-71" value="" style="rounded=1;orthogonalLoop=1;jettySize=auto;html=1;entryX=0.5;entryY=1;entryDx=0;entryDy=0;endArrow=none;endFill=0;labelBackgroundColor=none;fontColor=default;" parent="1" source="TixmDoIBfifaujmpM2rf-69" target="KOeo-1UNWqgR8L-i1EB0-1" edge="1">
          <mxGeometry relative="1" as="geometry">
            <mxPoint x="700" y="390.0000000000002" as="targetPoint" />
            <Array as="points">
              <mxPoint x="650" y="360" />
            </Array>
          </mxGeometry>
        </mxCell>
        <mxCell id="TixmDoIBfifaujmpM2rf-69" value="&lt;font face=&quot;Times New Roman&quot; style=&quot;font-size: 14px;&quot;&gt;Name&lt;/font&gt;" style="ellipse;whiteSpace=wrap;html=1;align=center;rounded=1;labelBackgroundColor=none;" parent="1" vertex="1">
          <mxGeometry x="630" y="490" width="60" height="25" as="geometry" />
        </mxCell>
        <mxCell id="TixmDoIBfifaujmpM2rf-74" value="" style="rounded=1;orthogonalLoop=1;jettySize=auto;html=1;entryX=0.75;entryY=1;entryDx=0;entryDy=0;endArrow=none;endFill=0;labelBackgroundColor=none;fontColor=default;" parent="1" source="TixmDoIBfifaujmpM2rf-72" target="KOeo-1UNWqgR8L-i1EB0-1" edge="1">
          <mxGeometry relative="1" as="geometry">
            <mxPoint x="760" y="382.5000000000002" as="targetPoint" />
            <Array as="points">
              <mxPoint x="660" y="360" />
              <mxPoint x="670" y="360" />
            </Array>
          </mxGeometry>
        </mxCell>
        <mxCell id="TixmDoIBfifaujmpM2rf-72" value="&lt;font face=&quot;Times New Roman&quot; style=&quot;font-size: 14px;&quot;&gt;Department&lt;/font&gt;" style="ellipse;whiteSpace=wrap;html=1;align=center;rounded=1;labelBackgroundColor=none;" parent="1" vertex="1">
          <mxGeometry x="700" y="487.5" width="80" height="30" as="geometry" />
        </mxCell>
        <mxCell id="TixmDoIBfifaujmpM2rf-77" value="" style="rounded=1;orthogonalLoop=1;jettySize=auto;html=1;endArrow=none;endFill=0;labelBackgroundColor=none;fontColor=default;" parent="1" source="KOeo-1UNWqgR8L-i1EB0-1" edge="1">
          <mxGeometry relative="1" as="geometry">
            <mxPoint x="690" y="360" as="targetPoint" />
          </mxGeometry>
        </mxCell>
        <mxCell id="TixmDoIBfifaujmpM2rf-75" value="&lt;font face=&quot;Times New Roman&quot; style=&quot;font-size: 14px;&quot;&gt;Title&lt;/font&gt;" style="ellipse;whiteSpace=wrap;html=1;align=center;rounded=1;labelBackgroundColor=none;" parent="1" vertex="1">
          <mxGeometry x="790" y="487.5" width="70" height="27.5" as="geometry" />
        </mxCell>
        <mxCell id="TixmDoIBfifaujmpM2rf-78" value="" style="rounded=1;orthogonalLoop=1;jettySize=auto;html=1;endArrow=none;endFill=0;entryX=0.845;entryY=1.042;entryDx=0;entryDy=0;entryPerimeter=0;labelBackgroundColor=none;fontColor=default;" parent="1" source="TixmDoIBfifaujmpM2rf-75" target="KOeo-1UNWqgR8L-i1EB0-1" edge="1">
          <mxGeometry relative="1" as="geometry">
            <mxPoint x="813" y="488" as="sourcePoint" />
            <mxPoint x="690" y="360" as="targetPoint" />
          </mxGeometry>
        </mxCell>
        <mxCell id="KOeo-1UNWqgR8L-i1EB0-1" value="&lt;font face=&quot;Times New Roman&quot; style=&quot;font-size: 18px;&quot;&gt;Instructor&amp;nbsp;&lt;/font&gt;" style="whiteSpace=wrap;html=1;align=center;rounded=1;labelBackgroundColor=none;" parent="1" vertex="1">
          <mxGeometry x="600" y="320" width="100" height="40" as="geometry" />
        </mxCell>
      </root>
    </mxGraphModel>
  </diagram>
  <diagram id="mEkqHZu-PhF0Pf2eQ-ZZ" name="Page-4">
    <mxGraphModel dx="1900" dy="522" grid="1" gridSize="10" guides="1" tooltips="1" connect="1" arrows="1" fold="1" page="1" pageScale="1" pageWidth="850" pageHeight="1100" math="0" shadow="0">
      <root>
        <mxCell id="0" />
        <mxCell id="1" parent="0" />
        <mxCell id="LMxOd1wmfEy2IOo_Xq1l-41" value="" style="edgeStyle=orthogonalEdgeStyle;rounded=0;orthogonalLoop=1;jettySize=auto;html=1;entryX=0.5;entryY=0;entryDx=0;entryDy=0;endArrow=none;endFill=0;" parent="1" source="LMxOd1wmfEy2IOo_Xq1l-2" target="LMxOd1wmfEy2IOo_Xq1l-39" edge="1">
          <mxGeometry relative="1" as="geometry">
            <mxPoint x="120" y="380" as="targetPoint" />
          </mxGeometry>
        </mxCell>
        <mxCell id="evJZHwoLW3ZAEvmKyjpq-6" value="&lt;font style=&quot;font-size: 14px;&quot;&gt;M&lt;/font&gt;" style="edgeLabel;html=1;align=center;verticalAlign=middle;resizable=0;points=[];" vertex="1" connectable="0" parent="LMxOd1wmfEy2IOo_Xq1l-41">
          <mxGeometry x="-0.8193" y="9" relative="1" as="geometry">
            <mxPoint x="11" y="138" as="offset" />
          </mxGeometry>
        </mxCell>
        <mxCell id="LMxOd1wmfEy2IOo_Xq1l-2" value="&lt;font face=&quot;Times New Roman&quot; style=&quot;font-size: 18px;&quot;&gt;Patient&lt;/font&gt;" style="whiteSpace=wrap;html=1;align=center;" parent="1" vertex="1">
          <mxGeometry x="80" y="240" width="80" height="40" as="geometry" />
        </mxCell>
        <mxCell id="LMxOd1wmfEy2IOo_Xq1l-4" value="&lt;font face=&quot;Times New Roman&quot; style=&quot;font-size: 18px;&quot;&gt;Doctor&lt;/font&gt;" style="whiteSpace=wrap;html=1;align=center;" parent="1" vertex="1">
          <mxGeometry x="580" y="240" width="90" height="40" as="geometry" />
        </mxCell>
        <mxCell id="LMxOd1wmfEy2IOo_Xq1l-6" value="" style="endArrow=none;html=1;rounded=0;" parent="1" edge="1">
          <mxGeometry relative="1" as="geometry">
            <mxPoint x="410" y="254.5" as="sourcePoint" />
            <mxPoint x="580" y="255" as="targetPoint" />
          </mxGeometry>
        </mxCell>
        <mxCell id="LMxOd1wmfEy2IOo_Xq1l-8" value="" style="endArrow=none;html=1;rounded=0;" parent="1" edge="1">
          <mxGeometry relative="1" as="geometry">
            <mxPoint x="160" y="254.5" as="sourcePoint" />
            <mxPoint x="290" y="255" as="targetPoint" />
          </mxGeometry>
        </mxCell>
        <mxCell id="LMxOd1wmfEy2IOo_Xq1l-24" value="&lt;font style=&quot;font-size: 14px;&quot;&gt;M&lt;/font&gt;" style="text;html=1;align=center;verticalAlign=middle;resizable=0;points=[];autosize=1;strokeColor=none;fillColor=none;" parent="1" vertex="1">
          <mxGeometry x="150" y="228" width="40" height="30" as="geometry" />
        </mxCell>
        <mxCell id="LMxOd1wmfEy2IOo_Xq1l-25" value="&lt;font style=&quot;font-size: 14px;&quot;&gt;N&lt;/font&gt;" style="text;html=1;align=center;verticalAlign=middle;resizable=0;points=[];autosize=1;strokeColor=none;fillColor=none;" parent="1" vertex="1">
          <mxGeometry x="555" y="228" width="30" height="30" as="geometry" />
        </mxCell>
        <mxCell id="LMxOd1wmfEy2IOo_Xq1l-37" value="" style="edgeStyle=orthogonalEdgeStyle;rounded=0;orthogonalLoop=1;jettySize=auto;html=1;endArrow=none;endFill=0;" parent="1" source="LMxOd1wmfEy2IOo_Xq1l-26" edge="1">
          <mxGeometry relative="1" as="geometry">
            <mxPoint x="640" y="580" as="targetPoint" />
          </mxGeometry>
        </mxCell>
        <mxCell id="LMxOd1wmfEy2IOo_Xq1l-26" value="&lt;font face=&quot;Times New Roman&quot; style=&quot;font-size: 18px;&quot;&gt;Performed&lt;/font&gt;" style="shape=rhombus;perimeter=rhombusPerimeter;whiteSpace=wrap;html=1;align=center;" parent="1" vertex="1">
          <mxGeometry x="580" y="410" width="120" height="60" as="geometry" />
        </mxCell>
        <mxCell id="LMxOd1wmfEy2IOo_Xq1l-27" value="" style="endArrow=none;html=1;rounded=0;" parent="1" edge="1">
          <mxGeometry relative="1" as="geometry">
            <mxPoint x="640" y="280" as="sourcePoint" />
            <mxPoint x="639.5" y="410" as="targetPoint" />
          </mxGeometry>
        </mxCell>
        <mxCell id="LMxOd1wmfEy2IOo_Xq1l-28" value="&lt;font face=&quot;Times New Roman&quot; style=&quot;font-size: 18px;&quot;&gt;Test&lt;/font&gt;" style="whiteSpace=wrap;html=1;align=center;" parent="1" vertex="1">
          <mxGeometry x="340" y="560" width="90" height="40" as="geometry" />
        </mxCell>
        <mxCell id="LMxOd1wmfEy2IOo_Xq1l-43" value="" style="edgeStyle=orthogonalEdgeStyle;rounded=0;orthogonalLoop=1;jettySize=auto;html=1;endArrow=none;endFill=0;" parent="1" source="LMxOd1wmfEy2IOo_Xq1l-39" edge="1">
          <mxGeometry relative="1" as="geometry">
            <mxPoint x="120" y="580" as="targetPoint" />
          </mxGeometry>
        </mxCell>
        <mxCell id="LMxOd1wmfEy2IOo_Xq1l-39" value="&lt;font face=&quot;Times New Roman&quot; style=&quot;font-size: 18px;&quot;&gt;Test_log&lt;/font&gt;" style="shape=rhombus;perimeter=rhombusPerimeter;whiteSpace=wrap;html=1;align=center;" parent="1" vertex="1">
          <mxGeometry x="65" y="415" width="110" height="50" as="geometry" />
        </mxCell>
        <mxCell id="LMxOd1wmfEy2IOo_Xq1l-44" value="" style="endArrow=none;html=1;rounded=0;entryX=0;entryY=0.5;entryDx=0;entryDy=0;" parent="1" target="LMxOd1wmfEy2IOo_Xq1l-28" edge="1">
          <mxGeometry relative="1" as="geometry">
            <mxPoint x="120" y="579.5" as="sourcePoint" />
            <mxPoint x="280" y="579.5" as="targetPoint" />
          </mxGeometry>
        </mxCell>
        <mxCell id="LMxOd1wmfEy2IOo_Xq1l-67" value="" style="rounded=0;orthogonalLoop=1;jettySize=auto;html=1;endArrow=none;endFill=0;" parent="1" source="LMxOd1wmfEy2IOo_Xq1l-45" edge="1">
          <mxGeometry relative="1" as="geometry">
            <mxPoint x="100" y="240" as="targetPoint" />
          </mxGeometry>
        </mxCell>
        <mxCell id="LMxOd1wmfEy2IOo_Xq1l-45" value="&lt;font face=&quot;Times New Roman&quot;&gt;&lt;span style=&quot;font-size: 14px;&quot;&gt;Patient_ID&lt;/span&gt;&lt;/font&gt;" style="ellipse;whiteSpace=wrap;html=1;align=center;" parent="1" vertex="1">
          <mxGeometry x="-80" y="80" width="100" height="30" as="geometry" />
        </mxCell>
        <mxCell id="LMxOd1wmfEy2IOo_Xq1l-64" value="" style="rounded=0;orthogonalLoop=1;jettySize=auto;html=1;endArrow=none;endFill=0;" parent="1" source="LMxOd1wmfEy2IOo_Xq1l-47" edge="1">
          <mxGeometry relative="1" as="geometry">
            <mxPoint x="110" y="240" as="targetPoint" />
          </mxGeometry>
        </mxCell>
        <mxCell id="LMxOd1wmfEy2IOo_Xq1l-47" value="&lt;font face=&quot;Times New Roman&quot; style=&quot;font-size: 18px;&quot;&gt;Name&lt;/font&gt;" style="ellipse;whiteSpace=wrap;html=1;align=center;" parent="1" vertex="1">
          <mxGeometry x="20" y="75" width="80" height="25" as="geometry" />
        </mxCell>
        <mxCell id="LMxOd1wmfEy2IOo_Xq1l-65" value="" style="rounded=0;orthogonalLoop=1;jettySize=auto;html=1;entryX=0.5;entryY=0;entryDx=0;entryDy=0;endArrow=none;endFill=0;" parent="1" source="LMxOd1wmfEy2IOo_Xq1l-51" target="LMxOd1wmfEy2IOo_Xq1l-2" edge="1">
          <mxGeometry relative="1" as="geometry" />
        </mxCell>
        <mxCell id="LMxOd1wmfEy2IOo_Xq1l-51" value="&lt;font face=&quot;Times New Roman&quot; style=&quot;font-size: 18px;&quot;&gt;Age&lt;/font&gt;" style="ellipse;whiteSpace=wrap;html=1;align=center;" parent="1" vertex="1">
          <mxGeometry x="110" y="72.5" width="60" height="30" as="geometry" />
        </mxCell>
        <mxCell id="LMxOd1wmfEy2IOo_Xq1l-59" value="&lt;font face=&quot;Times New Roman&quot; style=&quot;font-size: 14px;&quot;&gt;Gender&lt;/font&gt;" style="ellipse;whiteSpace=wrap;html=1;align=center;" parent="1" vertex="1">
          <mxGeometry x="175" y="72.5" width="65" height="30" as="geometry" />
        </mxCell>
        <mxCell id="LMxOd1wmfEy2IOo_Xq1l-61" style="rounded=0;orthogonalLoop=1;jettySize=auto;html=1;endArrow=none;endFill=0;" parent="1" source="LMxOd1wmfEy2IOo_Xq1l-59" edge="1">
          <mxGeometry relative="1" as="geometry">
            <mxPoint x="150" y="240" as="targetPoint" />
            <Array as="points">
              <mxPoint x="130" y="240" />
            </Array>
          </mxGeometry>
        </mxCell>
        <mxCell id="LMxOd1wmfEy2IOo_Xq1l-82" value="" style="rounded=0;orthogonalLoop=1;jettySize=auto;html=1;endArrow=none;endFill=0;" parent="1" source="LMxOd1wmfEy2IOo_Xq1l-3" edge="1">
          <mxGeometry relative="1" as="geometry">
            <mxPoint x="310" y="250" as="targetPoint" />
          </mxGeometry>
        </mxCell>
        <mxCell id="sTUE-JctTGNJOJs0VMj7-26" value="" style="rounded=0;orthogonalLoop=1;jettySize=auto;html=1;endArrow=none;endFill=0;" parent="1" source="LMxOd1wmfEy2IOo_Xq1l-75" target="LMxOd1wmfEy2IOo_Xq1l-3" edge="1">
          <mxGeometry relative="1" as="geometry" />
        </mxCell>
        <mxCell id="LMxOd1wmfEy2IOo_Xq1l-75" value="&lt;font face=&quot;Times New Roman&quot; style=&quot;font-size: 14px;&quot;&gt;follow_up_date&lt;/font&gt;" style="ellipse;whiteSpace=wrap;html=1;align=center;" parent="1" vertex="1">
          <mxGeometry x="350" y="102.5" width="100" height="30" as="geometry" />
        </mxCell>
        <mxCell id="LMxOd1wmfEy2IOo_Xq1l-3" value="&lt;font face=&quot;Times New Roman&quot; style=&quot;font-size: 18px;&quot;&gt;examine_by&lt;/font&gt;" style="shape=rhombus;perimeter=rhombusPerimeter;whiteSpace=wrap;html=1;align=center;" parent="1" vertex="1">
          <mxGeometry x="290" y="230" width="120" height="50" as="geometry" />
        </mxCell>
        <mxCell id="sTUE-JctTGNJOJs0VMj7-4" value="" style="rounded=0;orthogonalLoop=1;jettySize=auto;html=1;endArrow=none;endFill=0;" parent="1" source="sTUE-JctTGNJOJs0VMj7-2" edge="1">
          <mxGeometry relative="1" as="geometry">
            <mxPoint x="590" y="240" as="targetPoint" />
          </mxGeometry>
        </mxCell>
        <mxCell id="sTUE-JctTGNJOJs0VMj7-2" value="&lt;font face=&quot;Times New Roman&quot; style=&quot;font-size: 14px;&quot;&gt;Doctor_ID&lt;/font&gt;" style="ellipse;whiteSpace=wrap;html=1;align=center;" parent="1" vertex="1">
          <mxGeometry x="465" y="70" width="90" height="25" as="geometry" />
        </mxCell>
        <mxCell id="sTUE-JctTGNJOJs0VMj7-7" value="" style="rounded=0;orthogonalLoop=1;jettySize=auto;html=1;endArrow=none;endFill=0;" parent="1" source="sTUE-JctTGNJOJs0VMj7-5" edge="1">
          <mxGeometry relative="1" as="geometry">
            <mxPoint x="606" y="240" as="targetPoint" />
          </mxGeometry>
        </mxCell>
        <mxCell id="sTUE-JctTGNJOJs0VMj7-5" value="&lt;font face=&quot;Times New Roman&quot; style=&quot;font-size: 14px;&quot;&gt;Name&lt;/font&gt;" style="ellipse;whiteSpace=wrap;html=1;align=center;" parent="1" vertex="1">
          <mxGeometry x="570" y="70" width="60" height="30" as="geometry" />
        </mxCell>
        <mxCell id="sTUE-JctTGNJOJs0VMj7-8" value="&lt;font face=&quot;Times New Roman&quot;&gt;&lt;span style=&quot;font-size: 14px;&quot;&gt;Specialization&lt;/span&gt;&lt;/font&gt;" style="ellipse;whiteSpace=wrap;html=1;align=center;" parent="1" vertex="1">
          <mxGeometry x="640" y="60" width="100" height="40" as="geometry" />
        </mxCell>
        <mxCell id="sTUE-JctTGNJOJs0VMj7-9" style="rounded=0;orthogonalLoop=1;jettySize=auto;html=1;endArrow=none;endFill=0;" parent="1" source="sTUE-JctTGNJOJs0VMj7-8" edge="1">
          <mxGeometry relative="1" as="geometry">
            <mxPoint x="633" y="238" as="targetPoint" />
          </mxGeometry>
        </mxCell>
        <mxCell id="sTUE-JctTGNJOJs0VMj7-10" value="Contact_No." style="ellipse;whiteSpace=wrap;html=1;align=center;" parent="1" vertex="1">
          <mxGeometry x="740" y="80" width="90" height="30" as="geometry" />
        </mxCell>
        <mxCell id="sTUE-JctTGNJOJs0VMj7-11" style="rounded=0;orthogonalLoop=1;jettySize=auto;html=1;endArrow=none;endFill=0;" parent="1" source="sTUE-JctTGNJOJs0VMj7-10" edge="1">
          <mxGeometry relative="1" as="geometry">
            <mxPoint x="660" y="240" as="targetPoint" />
          </mxGeometry>
        </mxCell>
        <mxCell id="sTUE-JctTGNJOJs0VMj7-12" value="" style="endArrow=none;html=1;rounded=0;" parent="1" edge="1">
          <mxGeometry relative="1" as="geometry">
            <mxPoint x="430" y="579.5" as="sourcePoint" />
            <mxPoint x="640" y="580" as="targetPoint" />
          </mxGeometry>
        </mxCell>
        <mxCell id="sTUE-JctTGNJOJs0VMj7-13" value="&lt;font face=&quot;Times New Roman&quot; style=&quot;font-size: 18px;&quot;&gt;Test_ID&lt;/font&gt;" style="ellipse;whiteSpace=wrap;html=1;align=center;" parent="1" vertex="1">
          <mxGeometry x="220" y="730" width="70" height="30" as="geometry" />
        </mxCell>
        <mxCell id="sTUE-JctTGNJOJs0VMj7-14" style="rounded=0;orthogonalLoop=1;jettySize=auto;html=1;entryX=0.338;entryY=1.05;entryDx=0;entryDy=0;entryPerimeter=0;endArrow=none;endFill=0;" parent="1" source="sTUE-JctTGNJOJs0VMj7-13" target="LMxOd1wmfEy2IOo_Xq1l-28" edge="1">
          <mxGeometry relative="1" as="geometry" />
        </mxCell>
        <mxCell id="sTUE-JctTGNJOJs0VMj7-16" style="rounded=0;orthogonalLoop=1;jettySize=auto;html=1;entryX=0.5;entryY=1;entryDx=0;entryDy=0;endArrow=none;endFill=0;" parent="1" source="sTUE-JctTGNJOJs0VMj7-15" target="LMxOd1wmfEy2IOo_Xq1l-28" edge="1">
          <mxGeometry relative="1" as="geometry" />
        </mxCell>
        <mxCell id="sTUE-JctTGNJOJs0VMj7-15" value="&lt;font face=&quot;Times New Roman&quot; style=&quot;font-size: 18px;&quot;&gt;Test_Name&lt;/font&gt;" style="ellipse;whiteSpace=wrap;html=1;align=center;" parent="1" vertex="1">
          <mxGeometry x="300" y="730" width="100" height="40" as="geometry" />
        </mxCell>
        <mxCell id="sTUE-JctTGNJOJs0VMj7-18" style="rounded=0;orthogonalLoop=1;jettySize=auto;html=1;entryX=0.75;entryY=1;entryDx=0;entryDy=0;endArrow=none;endFill=0;" parent="1" source="sTUE-JctTGNJOJs0VMj7-17" target="LMxOd1wmfEy2IOo_Xq1l-28" edge="1">
          <mxGeometry relative="1" as="geometry">
            <Array as="points">
              <mxPoint x="390" y="600" />
            </Array>
          </mxGeometry>
        </mxCell>
        <mxCell id="sTUE-JctTGNJOJs0VMj7-17" value="&lt;font face=&quot;Times New Roman&quot; style=&quot;font-size: 14px;&quot;&gt;Test_date_conducted&lt;/font&gt;" style="ellipse;whiteSpace=wrap;html=1;align=center;" parent="1" vertex="1">
          <mxGeometry x="410" y="730" width="140" height="40" as="geometry" />
        </mxCell>
        <mxCell id="sTUE-JctTGNJOJs0VMj7-20" style="rounded=0;orthogonalLoop=1;jettySize=auto;html=1;entryX=1;entryY=1;entryDx=0;entryDy=0;endArrow=none;endFill=0;" parent="1" source="sTUE-JctTGNJOJs0VMj7-19" target="LMxOd1wmfEy2IOo_Xq1l-28" edge="1">
          <mxGeometry relative="1" as="geometry">
            <Array as="points">
              <mxPoint x="410" y="600" />
            </Array>
          </mxGeometry>
        </mxCell>
        <mxCell id="sTUE-JctTGNJOJs0VMj7-19" value="&lt;font face=&quot;Times New Roman&quot; style=&quot;font-size: 18px;&quot;&gt;Result&lt;/font&gt;" style="ellipse;whiteSpace=wrap;html=1;align=center;" parent="1" vertex="1">
          <mxGeometry x="555" y="735" width="90" height="30" as="geometry" />
        </mxCell>
        <mxCell id="sTUE-JctTGNJOJs0VMj7-22" value="&lt;font face=&quot;Times New Roman&quot; style=&quot;font-size: 14px;&quot;&gt;Contact_No.&lt;/font&gt;" style="ellipse;whiteSpace=wrap;html=1;align=center;" parent="1" vertex="1">
          <mxGeometry x="240" y="80" width="100" height="30" as="geometry" />
        </mxCell>
        <mxCell id="sTUE-JctTGNJOJs0VMj7-25" style="rounded=0;orthogonalLoop=1;jettySize=auto;html=1;entryX=-0.17;entryY=0.413;entryDx=0;entryDy=0;entryPerimeter=0;endArrow=none;endFill=0;" parent="1" source="sTUE-JctTGNJOJs0VMj7-22" target="LMxOd1wmfEy2IOo_Xq1l-24" edge="1">
          <mxGeometry relative="1" as="geometry" />
        </mxCell>
        <mxCell id="evJZHwoLW3ZAEvmKyjpq-8" value="&lt;font style=&quot;font-size: 14px;&quot;&gt;N&lt;/font&gt;" style="text;html=1;align=center;verticalAlign=middle;resizable=0;points=[];autosize=1;strokeColor=none;fillColor=none;" vertex="1" parent="1">
          <mxGeometry x="115" y="458" width="30" height="30" as="geometry" />
        </mxCell>
        <mxCell id="evJZHwoLW3ZAEvmKyjpq-9" value="&lt;font style=&quot;font-size: 14px;&quot;&gt;M&lt;/font&gt;" style="text;html=1;align=center;verticalAlign=middle;resizable=0;points=[];autosize=1;strokeColor=none;fillColor=none;" vertex="1" parent="1">
          <mxGeometry x="610" y="458" width="40" height="30" as="geometry" />
        </mxCell>
        <mxCell id="evJZHwoLW3ZAEvmKyjpq-10" value="&lt;font style=&quot;font-size: 14px;&quot;&gt;N&lt;/font&gt;" style="text;html=1;align=center;verticalAlign=middle;resizable=0;points=[];autosize=1;strokeColor=none;fillColor=none;" vertex="1" parent="1">
          <mxGeometry x="615" y="278" width="30" height="30" as="geometry" />
        </mxCell>
      </root>
    </mxGraphModel>
  </diagram>
  <diagram id="Q9NK5fgWlwIhm4gcbZGH" name="Page-5">
    <mxGraphModel dx="1050" dy="522" grid="1" gridSize="10" guides="1" tooltips="1" connect="1" arrows="1" fold="1" page="1" pageScale="1" pageWidth="850" pageHeight="1100" background="#FFFFFF" math="0" shadow="0">
      <root>
        <mxCell id="0" />
        <mxCell id="1" parent="0" />
        <mxCell id="szux45jmYyXo1EPIrCRQ-12" value="" style="endArrow=none;html=1;rounded=0;" edge="1" parent="1" target="szux45jmYyXo1EPIrCRQ-15">
          <mxGeometry relative="1" as="geometry">
            <mxPoint x="570" y="419.5" as="sourcePoint" />
            <mxPoint x="730" y="419.5" as="targetPoint" />
          </mxGeometry>
        </mxCell>
        <mxCell id="szux45jmYyXo1EPIrCRQ-13" value="M" style="resizable=0;html=1;whiteSpace=wrap;align=left;verticalAlign=bottom;" connectable="0" vertex="1" parent="szux45jmYyXo1EPIrCRQ-12">
          <mxGeometry x="-1" relative="1" as="geometry" />
        </mxCell>
        <mxCell id="szux45jmYyXo1EPIrCRQ-14" value="N" style="resizable=0;html=1;whiteSpace=wrap;align=right;verticalAlign=bottom;" connectable="0" vertex="1" parent="szux45jmYyXo1EPIrCRQ-12">
          <mxGeometry x="1" relative="1" as="geometry" />
        </mxCell>
        <mxCell id="szux45jmYyXo1EPIrCRQ-7" value="" style="endArrow=none;html=1;rounded=0;" edge="1" parent="1" target="szux45jmYyXo1EPIrCRQ-10">
          <mxGeometry relative="1" as="geometry">
            <mxPoint x="160" y="419.5" as="sourcePoint" />
            <mxPoint x="320" y="419.5" as="targetPoint" />
          </mxGeometry>
        </mxCell>
        <mxCell id="szux45jmYyXo1EPIrCRQ-8" value="M" style="resizable=0;html=1;whiteSpace=wrap;align=left;verticalAlign=bottom;" connectable="0" vertex="1" parent="szux45jmYyXo1EPIrCRQ-7">
          <mxGeometry x="-1" relative="1" as="geometry" />
        </mxCell>
        <mxCell id="szux45jmYyXo1EPIrCRQ-9" value="N" style="resizable=0;html=1;whiteSpace=wrap;align=right;verticalAlign=bottom;" connectable="0" vertex="1" parent="szux45jmYyXo1EPIrCRQ-7">
          <mxGeometry x="1" relative="1" as="geometry" />
        </mxCell>
        <mxCell id="szux45jmYyXo1EPIrCRQ-5" value="&lt;font face=&quot;Times New Roman&quot; style=&quot;font-size: 18px;&quot;&gt;Product&lt;/font&gt;" style="whiteSpace=wrap;html=1;align=center;" vertex="1" parent="1">
          <mxGeometry x="50" y="400" width="110" height="40" as="geometry" />
        </mxCell>
        <mxCell id="szux45jmYyXo1EPIrCRQ-6" value="&lt;font face=&quot;Times New Roman&quot; style=&quot;font-size: 18px;&quot;&gt;build&lt;/font&gt;" style="shape=rhombus;perimeter=rhombusPerimeter;whiteSpace=wrap;html=1;align=center;" vertex="1" parent="1">
          <mxGeometry x="270" y="395" width="100" height="50" as="geometry" />
        </mxCell>
        <mxCell id="szux45jmYyXo1EPIrCRQ-10" value="&lt;font face=&quot;Times New Roman&quot; style=&quot;font-size: 18px;&quot;&gt;Component&lt;/font&gt;" style="whiteSpace=wrap;html=1;align=center;" vertex="1" parent="1">
          <mxGeometry x="470" y="400" width="100" height="40" as="geometry" />
        </mxCell>
        <mxCell id="szux45jmYyXo1EPIrCRQ-11" value="&lt;font face=&quot;Times New Roman&quot;&gt;&lt;span style=&quot;font-size: 18px;&quot;&gt;supplies&lt;/span&gt;&lt;/font&gt;" style="shape=rhombus;perimeter=rhombusPerimeter;whiteSpace=wrap;html=1;align=center;" vertex="1" parent="1">
          <mxGeometry x="660" y="385" width="120" height="70" as="geometry" />
        </mxCell>
        <mxCell id="szux45jmYyXo1EPIrCRQ-15" value="&lt;font face=&quot;Times New Roman&quot; style=&quot;font-size: 18px;&quot;&gt;Suppliers&lt;/font&gt;" style="whiteSpace=wrap;html=1;align=center;" vertex="1" parent="1">
          <mxGeometry x="900" y="400" width="100" height="40" as="geometry" />
        </mxCell>
        <mxCell id="ucKyhPH4YGOZXGSrz4Tv-3" value="" style="rounded=0;orthogonalLoop=1;jettySize=auto;html=1;entryX=0.25;entryY=0;entryDx=0;entryDy=0;endArrow=none;endFill=0;" edge="1" parent="1" target="szux45jmYyXo1EPIrCRQ-5">
          <mxGeometry relative="1" as="geometry">
            <mxPoint x="62.123083455278675" y="259.9819619320333" as="sourcePoint" />
            <mxPoint x="90" y="360" as="targetPoint" />
          </mxGeometry>
        </mxCell>
        <mxCell id="ucKyhPH4YGOZXGSrz4Tv-13" value="" style="rounded=0;orthogonalLoop=1;jettySize=auto;html=1;entryX=0.5;entryY=0;entryDx=0;entryDy=0;endArrow=none;endFill=0;" edge="1" parent="1" source="ucKyhPH4YGOZXGSrz4Tv-4" target="szux45jmYyXo1EPIrCRQ-5">
          <mxGeometry relative="1" as="geometry">
            <mxPoint x="170" y="340" as="targetPoint" />
          </mxGeometry>
        </mxCell>
        <mxCell id="ucKyhPH4YGOZXGSrz4Tv-4" value="&lt;font face=&quot;Times New Roman&quot; style=&quot;font-size: 18px;&quot;&gt;Product_Name&lt;/font&gt;" style="ellipse;whiteSpace=wrap;html=1;align=center;" vertex="1" parent="1">
          <mxGeometry x="110" y="200" width="120" height="40" as="geometry" />
        </mxCell>
        <mxCell id="ucKyhPH4YGOZXGSrz4Tv-15" value="" style="rounded=0;orthogonalLoop=1;jettySize=auto;html=1;entryX=0.75;entryY=0;entryDx=0;entryDy=0;endArrow=none;endFill=0;" edge="1" parent="1" source="ucKyhPH4YGOZXGSrz4Tv-7" target="szux45jmYyXo1EPIrCRQ-5">
          <mxGeometry relative="1" as="geometry">
            <mxPoint x="280" y="360" as="targetPoint" />
          </mxGeometry>
        </mxCell>
        <mxCell id="ucKyhPH4YGOZXGSrz4Tv-7" value="&lt;font face=&quot;Times New Roman&quot; style=&quot;font-size: 18px;&quot;&gt;Quantity&lt;/font&gt;" style="ellipse;whiteSpace=wrap;html=1;align=center;" vertex="1" parent="1">
          <mxGeometry x="230" y="220" width="100" height="40" as="geometry" />
        </mxCell>
        <mxCell id="ucKyhPH4YGOZXGSrz4Tv-18" value="" style="rounded=0;orthogonalLoop=1;jettySize=auto;html=1;entryX=0.25;entryY=0;entryDx=0;entryDy=0;endArrow=none;endFill=0;" edge="1" parent="1" source="ucKyhPH4YGOZXGSrz4Tv-16" target="szux45jmYyXo1EPIrCRQ-10">
          <mxGeometry relative="1" as="geometry">
            <mxPoint x="470" y="370" as="targetPoint" />
          </mxGeometry>
        </mxCell>
        <mxCell id="ucKyhPH4YGOZXGSrz4Tv-16" value="&lt;font face=&quot;Times New Roman&quot; style=&quot;font-size: 18px;&quot;&gt;Component_ID&lt;/font&gt;" style="ellipse;whiteSpace=wrap;html=1;align=center;" vertex="1" parent="1">
          <mxGeometry x="390" y="220" width="130" height="40" as="geometry" />
        </mxCell>
        <mxCell id="ucKyhPH4YGOZXGSrz4Tv-21" value="" style="rounded=0;orthogonalLoop=1;jettySize=auto;html=1;entryX=0.592;entryY=-0.07;entryDx=0;entryDy=0;entryPerimeter=0;endArrow=none;endFill=0;" edge="1" parent="1" source="ucKyhPH4YGOZXGSrz4Tv-19" target="szux45jmYyXo1EPIrCRQ-10">
          <mxGeometry relative="1" as="geometry">
            <mxPoint x="570" y="360" as="targetPoint" />
          </mxGeometry>
        </mxCell>
        <mxCell id="ucKyhPH4YGOZXGSrz4Tv-19" value="&lt;font face=&quot;Times New Roman&quot; style=&quot;font-size: 18px;&quot;&gt;Component_Name&lt;/font&gt;" style="ellipse;whiteSpace=wrap;html=1;align=center;" vertex="1" parent="1">
          <mxGeometry x="530" y="220" width="150" height="40" as="geometry" />
        </mxCell>
        <mxCell id="ucKyhPH4YGOZXGSrz4Tv-24" value="" style="rounded=0;orthogonalLoop=1;jettySize=auto;html=1;entryX=0.392;entryY=0.99;entryDx=0;entryDy=0;entryPerimeter=0;endArrow=none;endFill=0;" edge="1" parent="1" source="ucKyhPH4YGOZXGSrz4Tv-22" target="szux45jmYyXo1EPIrCRQ-10">
          <mxGeometry relative="1" as="geometry">
            <mxPoint x="500" y="480" as="targetPoint" />
          </mxGeometry>
        </mxCell>
        <mxCell id="ucKyhPH4YGOZXGSrz4Tv-22" value="&lt;font face=&quot;Times New Roman&quot; style=&quot;font-size: 18px;&quot;&gt;Component_type&lt;/font&gt;" style="ellipse;whiteSpace=wrap;html=1;align=center;" vertex="1" parent="1">
          <mxGeometry x="410" y="570" width="140" height="40" as="geometry" />
        </mxCell>
        <mxCell id="ucKyhPH4YGOZXGSrz4Tv-25" value="&lt;font face=&quot;Times New Roman&quot; style=&quot;font-size: 18px;&quot;&gt;Product_ID&lt;/font&gt;" style="ellipse;whiteSpace=wrap;html=1;align=center;fontStyle=4;" vertex="1" parent="1">
          <mxGeometry x="10" y="220" width="100" height="40" as="geometry" />
        </mxCell>
        <mxCell id="ucKyhPH4YGOZXGSrz4Tv-28" value="" style="rounded=0;orthogonalLoop=1;jettySize=auto;html=1;entryX=0.25;entryY=0;entryDx=0;entryDy=0;endArrow=none;endFill=0;" edge="1" parent="1" source="ucKyhPH4YGOZXGSrz4Tv-26" target="szux45jmYyXo1EPIrCRQ-15">
          <mxGeometry relative="1" as="geometry">
            <mxPoint x="880" y="370" as="targetPoint" />
          </mxGeometry>
        </mxCell>
        <mxCell id="ucKyhPH4YGOZXGSrz4Tv-26" value="&lt;font face=&quot;Times New Roman&quot; style=&quot;font-size: 18px;&quot;&gt;Supplier_ID&lt;/font&gt;" style="ellipse;whiteSpace=wrap;html=1;align=center;fontStyle=4;" vertex="1" parent="1">
          <mxGeometry x="830" y="230" width="100" height="40" as="geometry" />
        </mxCell>
        <mxCell id="ucKyhPH4YGOZXGSrz4Tv-31" value="" style="rounded=0;orthogonalLoop=1;jettySize=auto;html=1;entryX=0.612;entryY=-0.09;entryDx=0;entryDy=0;entryPerimeter=0;endArrow=none;endFill=0;" edge="1" parent="1" source="ucKyhPH4YGOZXGSrz4Tv-29" target="szux45jmYyXo1EPIrCRQ-15">
          <mxGeometry relative="1" as="geometry">
            <mxPoint x="1000" y="370" as="targetPoint" />
          </mxGeometry>
        </mxCell>
        <mxCell id="ucKyhPH4YGOZXGSrz4Tv-29" value="&lt;font face=&quot;Times New Roman&quot; style=&quot;font-size: 18px;&quot;&gt;Supplier_Name&lt;/font&gt;" style="ellipse;whiteSpace=wrap;html=1;align=center;" vertex="1" parent="1">
          <mxGeometry x="950" y="230" width="120" height="40" as="geometry" />
        </mxCell>
        <mxCell id="ucKyhPH4YGOZXGSrz4Tv-34" value="" style="rounded=0;orthogonalLoop=1;jettySize=auto;html=1;entryX=0.5;entryY=1;entryDx=0;entryDy=0;endArrow=none;endFill=0;" edge="1" parent="1" source="ucKyhPH4YGOZXGSrz4Tv-32" target="szux45jmYyXo1EPIrCRQ-15">
          <mxGeometry relative="1" as="geometry">
            <mxPoint x="950" y="470" as="targetPoint" />
          </mxGeometry>
        </mxCell>
        <mxCell id="ucKyhPH4YGOZXGSrz4Tv-32" value="&lt;font face=&quot;Times New Roman&quot; style=&quot;font-size: 18px;&quot;&gt;Supplier_phn.no.&lt;/font&gt;" style="ellipse;shape=doubleEllipse;margin=3;whiteSpace=wrap;html=1;align=center;" vertex="1" parent="1">
          <mxGeometry x="900" y="570" width="150" height="40" as="geometry" />
        </mxCell>
      </root>
    </mxGraphModel>
  </diagram>
  <diagram id="ytUhjmewBQKoAMAPEMP9" name="Page-6">
    <mxGraphModel dx="1050" dy="522" grid="1" gridSize="10" guides="1" tooltips="1" connect="1" arrows="1" fold="1" page="1" pageScale="1" pageWidth="850" pageHeight="1100" math="0" shadow="0">
      <root>
        <mxCell id="0" />
        <mxCell id="1" parent="0" />
        <mxCell id="iWVXACjVsgRUzibrCMJ--1" value="" style="rounded=0;whiteSpace=wrap;html=1;" vertex="1" parent="1">
          <mxGeometry x="360" y="240" width="120" height="60" as="geometry" />
        </mxCell>
      </root>
    </mxGraphModel>
  </diagram>
</mxfile>
